<svg width="228" height="184" viewBox="0 0 228 184" fill="none" xmlns="http://www.w3.org/2000/svg">
<path fill-rule="evenodd" clip-rule="evenodd" d="M15.3907 31.6152C15.8194 31.6152 16.2304 31.7855 16.5336 32.0886C16.8367 32.3917 17.0069 32.8028 17.0069 33.2315V36.4639H36.4016V33.2315C36.4016 32.8028 36.5719 32.3917 36.875 32.0886C37.1781 31.7855 37.5892 31.6152 38.0178 31.6152C38.4465 31.6152 38.8576 31.7855 39.1607 32.0886C39.4638 32.3917 39.6341 32.8028 39.6341 33.2315V36.4639H41.2503C42.9649 36.4639 44.6093 37.145 45.8217 38.3574C47.0341 39.5698 47.7152 41.2142 47.7152 42.9288V67.1722C47.7152 68.8868 47.0341 70.5311 45.8217 71.7435C44.6093 72.956 42.9649 73.6371 41.2503 73.6371H12.1583C10.4437 73.6371 8.79929 72.956 7.58688 71.7435C6.37448 70.5311 5.69336 68.8868 5.69336 67.1722V42.9288C5.69336 41.2142 6.37448 39.5698 7.58688 38.3574C8.79929 37.145 10.4437 36.4639 12.1583 36.4639H13.7745V33.2315C13.7745 32.8028 13.9448 32.3917 14.2479 32.0886C14.551 31.7855 14.9621 31.6152 15.3907 31.6152ZM44.4827 51.0099C44.4827 50.1526 44.1422 49.3304 43.536 48.7242C42.9298 48.118 42.1076 47.7775 41.2503 47.7775H12.1583C11.301 47.7775 10.4788 48.118 9.87257 48.7242C9.26637 49.3304 8.92581 50.1526 8.92581 51.0099V67.1722C8.92581 68.0295 9.26637 68.8517 9.87257 69.4579C10.4788 70.0641 11.301 70.4046 12.1583 70.4046H41.2503C42.1076 70.4046 42.9298 70.0641 43.536 69.4579C44.1422 68.8517 44.4827 68.0295 44.4827 67.1722V51.0099Z" fill="#9AA4AD"/>
<g filter="url(#filter0_d_830_22)">
<path d="M17.3823 62.625V55.8369H22.1146V57.2527H19.0018V61.2092H22.2213V62.625H17.3823ZM18.1678 59.8516V58.4939H21.688V59.8516H18.1678ZM23.6326 62.625V55.8369H25.1163L28.6849 60.6758L28.3649 60.637C28.3196 60.275 28.2808 59.9388 28.2485 59.6285C28.2162 59.3117 28.1936 58.982 28.1806 58.6394C28.1742 58.2968 28.1709 57.9024 28.1709 57.4563V55.8369H29.7807V62.625H28.2776L24.5732 57.6406L25.0484 57.7084C25.0937 58.1028 25.1292 58.4293 25.1551 58.6879C25.1809 58.9465 25.2003 59.1695 25.2133 59.357C25.2262 59.538 25.2359 59.7093 25.2423 59.871C25.2488 60.0261 25.252 60.2007 25.252 60.3946V62.625H23.6326ZM31.4643 62.625V55.8369H36.1966V57.2527H33.0838V61.2092H36.3033V62.625H31.4643ZM32.2498 59.8516V58.4939H35.77V59.8516H32.2498Z" fill="#F59E0B"/>
</g>
<g filter="url(#filter1_d_830_22)">
<path d="M16.9515 116.77V109.981H18.4351L20.8983 113.986L19.851 113.977L22.3432 109.981H23.7784V116.77H22.1686V114.714C22.1686 114.119 22.1816 113.586 22.2074 113.114C22.2397 112.635 22.2915 112.167 22.3626 111.708L22.5468 112.212L20.6752 115.111H20.0158L18.183 112.231L18.3673 111.708C18.4448 112.141 18.4966 112.59 18.5224 113.055C18.5547 113.514 18.5709 114.067 18.5709 114.714V116.77H16.9515ZM24.6214 116.77L27.3075 109.981H28.7137L31.3804 116.77H29.7125L28.4227 113.327C28.3775 113.191 28.3258 113.046 28.2676 112.891C28.2159 112.735 28.1641 112.574 28.1124 112.406C28.0607 112.238 28.0122 112.076 27.967 111.921C27.9217 111.766 27.8829 111.62 27.8506 111.484L28.1318 111.475C28.093 111.636 28.051 111.795 28.0057 111.95C27.9605 112.105 27.912 112.26 27.8603 112.415C27.8086 112.571 27.7536 112.726 27.6954 112.881C27.6437 113.03 27.5888 113.185 27.5306 113.346L26.2505 116.77H24.6214ZM25.9014 115.47L26.4251 114.209H29.5282L30.0519 115.47H25.9014ZM33.215 116.77V113.385L33.2829 113.86L30.5386 109.981H32.4199L34.5048 112.968L33.6611 112.939L35.5327 109.981H37.3655L34.7375 113.967L34.883 113.298V116.77H33.215Z" fill="white"/>
</g>
<g filter="url(#filter2_d_830_22)">
<path d="M20.3947 168.585C19.7223 168.585 19.1534 168.469 18.688 168.236C18.229 167.997 17.8346 167.661 17.5049 167.228L18.5134 166.093C18.8302 166.526 19.1502 166.817 19.4734 166.966C19.7967 167.114 20.1296 167.189 20.4723 167.189C20.6468 167.189 20.802 167.166 20.9377 167.121C21.08 167.076 21.1899 167.011 21.2675 166.927C21.3515 166.836 21.3935 166.73 21.3935 166.607C21.3935 166.51 21.3677 166.423 21.3159 166.345C21.2707 166.268 21.206 166.2 21.122 166.142C21.038 166.083 20.941 166.032 20.8311 165.986C20.7212 165.935 20.5983 165.893 20.4626 165.86C20.3333 165.828 20.2007 165.799 20.065 165.773C19.69 165.695 19.3635 165.595 19.0856 165.472C18.814 165.343 18.5845 165.191 18.397 165.017C18.216 164.836 18.0803 164.632 17.9898 164.406C17.8992 164.173 17.854 163.911 17.854 163.62C17.854 163.206 17.9704 162.844 18.2031 162.534C18.4423 162.224 18.7558 161.981 19.1437 161.807C19.5316 161.632 19.9518 161.545 20.4044 161.545C21.0638 161.545 21.5939 161.652 21.9948 161.865C22.402 162.072 22.7253 162.36 22.9645 162.728L21.9366 163.727C21.7362 163.468 21.5067 163.274 21.2481 163.145C20.9959 163.016 20.7309 162.951 20.4529 162.951C20.2654 162.951 20.1005 162.974 19.9583 163.019C19.8161 163.064 19.7062 163.132 19.6286 163.223C19.5575 163.307 19.5219 163.41 19.5219 163.533C19.5219 163.636 19.551 163.73 19.6092 163.814C19.6739 163.892 19.7611 163.96 19.871 164.018C19.9809 164.076 20.107 164.128 20.2492 164.173C20.3915 164.212 20.5402 164.244 20.6953 164.27C21.0509 164.341 21.3709 164.435 21.6553 164.551C21.9463 164.668 22.1952 164.813 22.402 164.988C22.6089 165.156 22.7673 165.356 22.8772 165.589C22.9936 165.815 23.0518 166.077 23.0518 166.374C23.0518 166.84 22.9386 167.237 22.7124 167.567C22.4861 167.897 22.1725 168.149 21.7717 168.323C21.3709 168.498 20.9119 168.585 20.3947 168.585ZM24.2908 168.488V161.7H29.0231V163.116H25.9102V167.072H29.1297V168.488H24.2908ZM25.0762 165.715V164.357H28.5964V165.715H25.0762ZM30.541 168.488V161.7H33.4793C33.906 161.7 34.2874 161.797 34.6236 161.991C34.9598 162.185 35.2248 162.45 35.4188 162.786C35.6127 163.116 35.7097 163.494 35.7097 163.921C35.7097 164.354 35.6127 164.745 35.4188 165.094C35.2248 165.443 34.9598 165.718 34.6236 165.918C34.2874 166.119 33.906 166.219 33.4793 166.219H32.1992V168.488H30.541ZM32.1798 164.755H33.2563C33.3985 164.755 33.5245 164.722 33.6345 164.658C33.7508 164.587 33.8446 164.49 33.9157 164.367C33.9868 164.244 34.0223 164.105 34.0223 163.95C34.0223 163.788 33.9868 163.649 33.9157 163.533C33.8446 163.417 33.7508 163.326 33.6345 163.261C33.5245 163.197 33.3985 163.164 33.2563 163.164H32.1798V164.755Z" fill="white"/>
</g>
<g filter="url(#filter3_d_830_22)">
<path d="M76.5764 116.867C76.3307 116.867 76.098 116.837 75.8782 116.779C75.6648 116.728 75.4677 116.65 75.2866 116.546C75.1056 116.437 74.9408 116.307 74.7921 116.159C74.6499 116.003 74.5303 115.832 74.4333 115.645L75.3836 114.656C75.5065 114.83 75.6228 114.972 75.7327 115.082C75.8426 115.186 75.9525 115.26 76.0624 115.305C76.1723 115.35 76.2887 115.373 76.4115 115.373C76.5667 115.373 76.7025 115.338 76.8188 115.266C76.9417 115.189 77.0354 115.085 77.1 114.956C77.1647 114.827 77.197 114.681 77.197 114.52V111.426H75.9461V109.981H79.8541V111.426H78.8068V114.704C78.8068 115.034 78.7486 115.331 78.6322 115.596C78.5223 115.861 78.3672 116.087 78.1668 116.275C77.9663 116.462 77.7304 116.608 77.4589 116.711C77.1873 116.815 76.8932 116.867 76.5764 116.867ZM84.2178 116.828C83.6554 116.828 83.1544 116.715 82.7147 116.488C82.2816 116.256 81.9389 115.939 81.6868 115.538C81.4347 115.131 81.3086 114.672 81.3086 114.161V109.972H82.9766V114.074C82.9766 114.319 83.0315 114.539 83.1414 114.733C83.2513 114.927 83.4 115.082 83.5875 115.199C83.7814 115.308 83.9916 115.363 84.2178 115.363C84.457 115.363 84.6736 115.308 84.8675 115.199C85.0615 115.082 85.2134 114.927 85.3233 114.733C85.4397 114.539 85.4979 114.319 85.4979 114.074V109.972H87.1076V114.161C87.1076 114.672 86.9816 115.131 86.7294 115.538C86.4838 115.939 86.1444 116.256 85.7112 116.488C85.2781 116.715 84.7803 116.828 84.2178 116.828ZM88.753 116.77V109.981H90.2367L93.8053 114.82L93.4853 114.782C93.4401 114.42 93.4013 114.083 93.3689 113.773C93.3366 113.456 93.314 113.127 93.3011 112.784C93.2946 112.441 93.2914 112.047 93.2914 111.601V109.981H94.9011V116.77H93.398L89.6936 111.785L90.1688 111.853C90.2141 112.247 90.2496 112.574 90.2755 112.832C90.3013 113.091 90.3207 113.314 90.3337 113.502C90.3466 113.683 90.3563 113.854 90.3628 114.015C90.3692 114.171 90.3725 114.345 90.3725 114.539V116.77H88.753Z" fill="white"/>
</g>
<g filter="url(#filter4_d_830_22)">
<path d="M78.3611 168.585C77.8504 168.585 77.3784 168.498 76.9453 168.323C76.5186 168.149 76.1469 167.906 75.8301 167.596C75.5198 167.279 75.2773 166.908 75.1028 166.481C74.9282 166.048 74.8409 165.576 74.8409 165.065C74.8409 164.561 74.9282 164.095 75.1028 163.669C75.2773 163.236 75.5198 162.861 75.8301 162.544C76.1469 162.227 76.5186 161.981 76.9453 161.807C77.3784 161.632 77.8504 161.545 78.3611 161.545C78.8653 161.545 79.3308 161.632 79.7575 161.807C80.1842 161.981 80.5527 162.227 80.863 162.544C81.1798 162.861 81.4254 163.236 81.6 163.669C81.7745 164.095 81.8618 164.564 81.8618 165.075C81.8618 165.579 81.7745 166.045 81.6 166.471C81.4254 166.898 81.1798 167.27 80.863 167.586C80.5527 167.903 80.1842 168.149 79.7575 168.323C79.3308 168.498 78.8653 168.585 78.3611 168.585ZM78.3611 167.024C78.6261 167.024 78.8686 166.975 79.0884 166.879C79.3082 166.782 79.4989 166.646 79.6605 166.471C79.8286 166.297 79.9579 166.09 80.0484 165.851C80.1389 165.611 80.1842 165.353 80.1842 165.075C80.1842 164.79 80.1389 164.529 80.0484 164.289C79.9579 164.05 79.8286 163.843 79.6605 163.669C79.4989 163.488 79.3082 163.349 79.0884 163.252C78.8686 163.155 78.6261 163.106 78.3611 163.106C78.096 163.106 77.8504 163.155 77.6241 163.252C77.4043 163.349 77.2103 163.488 77.0422 163.669C76.8806 163.843 76.7546 164.05 76.664 164.289C76.5735 164.529 76.5283 164.79 76.5283 165.075C76.5283 165.45 76.6059 165.786 76.761 166.083C76.9226 166.374 77.1392 166.604 77.4107 166.772C77.6887 166.94 78.0055 167.024 78.3611 167.024ZM86.2021 168.585C85.6913 168.585 85.2194 168.501 84.7863 168.333C84.3596 168.159 83.9878 167.916 83.6711 167.606C83.3607 167.289 83.1183 166.917 82.9438 166.491C82.7757 166.057 82.6916 165.586 82.6916 165.075C82.6916 164.571 82.7789 164.105 82.9535 163.678C83.1345 163.252 83.3866 162.88 83.7099 162.563C84.0331 162.246 84.4113 162.001 84.8444 161.826C85.2841 161.652 85.7592 161.564 86.27 161.564C86.5932 161.564 86.91 161.606 87.2203 161.69C87.5306 161.774 87.8183 161.901 88.0834 162.069C88.3549 162.23 88.5876 162.427 88.7816 162.66L87.7633 163.814C87.5629 163.594 87.3367 163.423 87.0845 163.3C86.8389 163.177 86.5641 163.116 86.2603 163.116C86.0017 163.116 85.756 163.161 85.5233 163.252C85.297 163.342 85.0998 163.475 84.9317 163.649C84.7636 163.824 84.6311 164.031 84.5341 164.27C84.4372 164.509 84.3887 164.781 84.3887 165.085C84.3887 165.382 84.4339 165.653 84.5244 165.899C84.6214 166.138 84.7572 166.345 84.9317 166.52C85.1127 166.688 85.3261 166.817 85.5717 166.908C85.8239 166.998 86.1019 167.043 86.4057 167.043C86.6061 167.043 86.7968 167.018 86.9779 166.966C87.1653 166.908 87.3399 166.827 87.5015 166.723C87.6631 166.62 87.8021 166.504 87.9185 166.374L88.7234 167.654C88.5682 167.829 88.3549 167.987 88.0834 168.129C87.8183 168.272 87.5209 168.385 87.1912 168.469C86.868 168.546 86.5382 168.585 86.2021 168.585ZM91.3161 168.488V163.164H89.3184V161.7H95.0398V163.164H92.9743V168.488H91.3161Z" fill="white"/>
</g>
<g filter="url(#filter5_d_830_22)">
<path d="M135.717 116.867C135.472 116.867 135.239 116.837 135.019 116.779C134.806 116.728 134.609 116.65 134.428 116.546C134.247 116.437 134.082 116.307 133.933 116.159C133.791 116.003 133.671 115.832 133.574 115.645L134.525 114.656C134.647 114.83 134.764 114.972 134.874 115.082C134.984 115.186 135.094 115.26 135.203 115.305C135.313 115.35 135.43 115.373 135.553 115.373C135.708 115.373 135.844 115.338 135.96 115.266C136.083 115.189 136.176 115.085 136.241 114.956C136.306 114.827 136.338 114.681 136.338 114.52V111.426H135.087V109.981H138.995V111.426H137.948V114.704C137.948 115.034 137.89 115.331 137.773 115.596C137.663 115.861 137.508 116.087 137.308 116.275C137.107 116.462 136.871 116.608 136.6 116.711C136.328 116.815 136.034 116.867 135.717 116.867ZM143.359 116.828C142.796 116.828 142.295 116.715 141.856 116.488C141.423 116.256 141.08 115.939 140.828 115.538C140.576 115.131 140.45 114.672 140.45 114.161V109.972H142.118V114.074C142.118 114.319 142.173 114.539 142.282 114.733C142.392 114.927 142.541 115.082 142.729 115.199C142.922 115.308 143.133 115.363 143.359 115.363C143.598 115.363 143.815 115.308 144.009 115.199C144.203 115.082 144.354 114.927 144.464 114.733C144.581 114.539 144.639 114.319 144.639 114.074V109.972H146.249V114.161C146.249 114.672 146.123 115.131 145.87 115.538C145.625 115.939 145.285 116.256 144.852 116.488C144.419 116.715 143.921 116.828 143.359 116.828ZM147.894 116.77V109.981H149.552V115.305H152.578V116.77H147.894Z" fill="white"/>
</g>
<g filter="url(#filter6_d_830_22)">
<path d="M132.751 168.488V161.7H134.235L137.804 166.539L137.484 166.5C137.438 166.138 137.4 165.802 137.367 165.492C137.335 165.175 137.312 164.845 137.299 164.503C137.293 164.16 137.29 163.766 137.29 163.32V161.7H138.9V168.488H137.396L133.692 163.504L134.167 163.572C134.212 163.966 134.248 164.293 134.274 164.551C134.3 164.81 134.319 165.033 134.332 165.22C134.345 165.401 134.355 165.573 134.361 165.734C134.368 165.889 134.371 166.064 134.371 166.258V168.488H132.751ZM143.677 168.585C143.166 168.585 142.694 168.498 142.261 168.323C141.834 168.149 141.462 167.906 141.146 167.596C140.835 167.279 140.593 166.908 140.418 166.481C140.244 166.048 140.156 165.576 140.156 165.065C140.156 164.561 140.244 164.095 140.418 163.669C140.593 163.236 140.835 162.861 141.146 162.544C141.462 162.227 141.834 161.981 142.261 161.807C142.694 161.632 143.166 161.545 143.677 161.545C144.181 161.545 144.646 161.632 145.073 161.807C145.5 161.981 145.868 162.227 146.179 162.544C146.495 162.861 146.741 163.236 146.916 163.669C147.09 164.095 147.177 164.564 147.177 165.075C147.177 165.579 147.09 166.045 146.916 166.471C146.741 166.898 146.495 167.27 146.179 167.586C145.868 167.903 145.5 168.149 145.073 168.323C144.646 168.498 144.181 168.585 143.677 168.585ZM143.677 167.024C143.942 167.024 144.184 166.975 144.404 166.879C144.624 166.782 144.814 166.646 144.976 166.471C145.144 166.297 145.273 166.09 145.364 165.851C145.454 165.611 145.5 165.353 145.5 165.075C145.5 164.79 145.454 164.529 145.364 164.289C145.273 164.05 145.144 163.843 144.976 163.669C144.814 163.488 144.624 163.349 144.404 163.252C144.184 163.155 143.942 163.106 143.677 163.106C143.412 163.106 143.166 163.155 142.94 163.252C142.72 163.349 142.526 163.488 142.358 163.669C142.196 163.843 142.07 164.05 141.98 164.289C141.889 164.529 141.844 164.79 141.844 165.075C141.844 165.45 141.921 165.786 142.077 166.083C142.238 166.374 142.455 166.604 142.726 166.772C143.004 166.94 143.321 167.024 143.677 167.024ZM150.06 168.488L147.345 161.7H149.071L150.371 165.123C150.448 165.324 150.513 165.501 150.565 165.657C150.623 165.812 150.671 165.957 150.71 166.093C150.755 166.222 150.797 166.355 150.836 166.491C150.875 166.62 150.917 166.769 150.962 166.937H150.662C150.72 166.71 150.775 166.51 150.826 166.335C150.878 166.161 150.936 165.98 151.001 165.792C151.066 165.605 151.146 165.382 151.243 165.123L152.494 161.7H154.182L151.457 168.488H150.06Z" fill="white"/>
</g>
<g filter="url(#filter7_d_830_22)">
<path d="M190.48 116.77L193.166 109.981H194.572L197.239 116.77H195.571L194.281 113.327C194.236 113.191 194.184 113.046 194.126 112.891C194.074 112.735 194.022 112.574 193.971 112.406C193.919 112.238 193.87 112.076 193.825 111.921C193.78 111.766 193.741 111.62 193.709 111.484L193.99 111.475C193.951 111.636 193.909 111.795 193.864 111.95C193.819 112.105 193.77 112.26 193.719 112.415C193.667 112.571 193.612 112.726 193.554 112.881C193.502 113.03 193.447 113.185 193.389 113.346L192.109 116.77H190.48ZM191.76 115.47L192.283 114.209H195.386L195.91 115.47H191.76ZM200.766 116.828C200.203 116.828 199.702 116.715 199.263 116.488C198.83 116.256 198.487 115.939 198.235 115.538C197.983 115.131 197.857 114.672 197.857 114.161V109.972H199.525V114.074C199.525 114.319 199.58 114.539 199.69 114.733C199.799 114.927 199.948 115.082 200.136 115.199C200.33 115.308 200.54 115.363 200.766 115.363C201.005 115.363 201.222 115.308 201.416 115.199C201.61 115.082 201.762 114.927 201.871 114.733C201.988 114.539 202.046 114.319 202.046 114.074V109.972H203.656V114.161C203.656 114.672 203.53 115.131 203.278 115.538C203.032 115.939 202.692 116.256 202.259 116.488C201.826 116.715 201.328 116.828 200.766 116.828ZM208.453 116.867C207.91 116.867 207.418 116.779 206.979 116.605C206.546 116.43 206.171 116.184 205.854 115.868C205.537 115.551 205.295 115.179 205.127 114.752C204.958 114.326 204.874 113.86 204.874 113.356C204.874 112.852 204.965 112.386 205.146 111.96C205.327 111.533 205.579 111.161 205.902 110.844C206.232 110.528 206.62 110.282 207.066 110.107C207.519 109.933 208.013 109.846 208.55 109.846C208.918 109.846 209.267 109.894 209.597 109.991C209.933 110.088 210.237 110.221 210.509 110.389C210.787 110.557 211.016 110.747 211.197 110.961L210.179 112.028C209.946 111.808 209.694 111.636 209.422 111.514C209.157 111.384 208.857 111.32 208.521 111.32C208.243 111.32 207.984 111.371 207.745 111.475C207.512 111.572 207.305 111.714 207.124 111.901C206.95 112.082 206.814 112.299 206.717 112.551C206.62 112.797 206.571 113.065 206.571 113.356C206.571 113.647 206.623 113.915 206.727 114.161C206.83 114.407 206.972 114.623 207.153 114.811C207.341 114.992 207.557 115.134 207.803 115.237C208.049 115.341 208.314 115.393 208.598 115.393C208.799 115.393 208.983 115.363 209.151 115.305C209.325 115.241 209.477 115.157 209.607 115.053C209.742 114.943 209.846 114.817 209.917 114.675C209.995 114.526 210.033 114.368 210.033 114.2V113.948L210.247 114.277H208.395V112.968H211.585C211.598 113.039 211.608 113.136 211.614 113.259C211.621 113.382 211.624 113.502 211.624 113.618C211.63 113.728 211.633 113.815 211.633 113.88C211.633 114.319 211.553 114.723 211.391 115.092C211.236 115.454 211.013 115.767 210.722 116.033C210.437 116.298 210.101 116.504 209.713 116.653C209.325 116.795 208.905 116.867 208.453 116.867Z" fill="white"/>
</g>
<g filter="url(#filter8_d_830_22)">
<path d="M192.445 168.488V161.7H195.306C195.804 161.7 196.26 161.784 196.674 161.952C197.087 162.114 197.443 162.347 197.74 162.65C198.038 162.948 198.267 163.307 198.429 163.727C198.59 164.141 198.671 164.596 198.671 165.094C198.671 165.598 198.59 166.057 198.429 166.471C198.267 166.885 198.038 167.244 197.74 167.548C197.443 167.845 197.087 168.078 196.674 168.246C196.266 168.407 195.81 168.488 195.306 168.488H192.445ZM194.104 167.344L193.89 167.024H195.258C195.523 167.024 195.762 166.979 195.975 166.888C196.189 166.798 196.37 166.668 196.518 166.5C196.674 166.326 196.79 166.122 196.867 165.889C196.952 165.65 196.994 165.385 196.994 165.094C196.994 164.803 196.952 164.541 196.867 164.309C196.79 164.07 196.674 163.866 196.518 163.698C196.37 163.523 196.189 163.391 195.975 163.3C195.762 163.21 195.523 163.164 195.258 163.164H193.861L194.104 162.864V167.344ZM199.668 168.488V167.092H200.812V163.097H199.668V161.7H203.615V163.097H202.471V167.092H203.615V168.488H199.668ZM208.115 168.585C207.604 168.585 207.132 168.501 206.699 168.333C206.272 168.159 205.901 167.916 205.584 167.606C205.274 167.289 205.031 166.917 204.857 166.491C204.689 166.057 204.605 165.586 204.605 165.075C204.605 164.571 204.692 164.105 204.866 163.678C205.047 163.252 205.299 162.88 205.623 162.563C205.946 162.246 206.324 162.001 206.757 161.826C207.197 161.652 207.672 161.564 208.183 161.564C208.506 161.564 208.823 161.606 209.133 161.69C209.443 161.774 209.731 161.901 209.996 162.069C210.268 162.23 210.501 162.427 210.694 162.66L209.676 163.814C209.476 163.594 209.25 163.423 208.997 163.3C208.752 163.177 208.477 163.116 208.173 163.116C207.915 163.116 207.669 163.161 207.436 163.252C207.21 163.342 207.013 163.475 206.845 163.649C206.677 163.824 206.544 164.031 206.447 164.27C206.35 164.509 206.302 164.781 206.302 165.085C206.302 165.382 206.347 165.653 206.437 165.899C206.534 166.138 206.67 166.345 206.845 166.52C207.026 166.688 207.239 166.817 207.485 166.908C207.737 166.998 208.015 167.043 208.319 167.043C208.519 167.043 208.71 167.018 208.891 166.966C209.078 166.908 209.253 166.827 209.414 166.723C209.576 166.62 209.715 166.504 209.831 166.374L210.636 167.654C210.481 167.829 210.268 167.987 209.996 168.129C209.731 168.272 209.434 168.385 209.104 168.469C208.781 168.546 208.451 168.585 208.115 168.585Z" fill="white"/>
</g>
<path fill-rule="evenodd" clip-rule="evenodd" d="M73.5753 31.6152C74.0039 31.6152 74.415 31.7855 74.7181 32.0886C75.0212 32.3917 75.1915 32.8028 75.1915 33.2315V36.4639H94.5862V33.2315C94.5862 32.8028 94.7565 32.3917 95.0596 32.0886C95.3627 31.7855 95.7738 31.6152 96.2024 31.6152C96.6311 31.6152 97.0422 31.7855 97.3453 32.0886C97.6484 32.3917 97.8186 32.8028 97.8186 33.2315V36.4639H99.4349C101.149 36.4639 102.794 37.145 104.006 38.3574C105.219 39.5698 105.9 41.2142 105.9 42.9288V67.1722C105.9 68.8868 105.219 70.5311 104.006 71.7435C102.794 72.956 101.149 73.6371 99.4349 73.6371H70.3428C68.6282 73.6371 66.9839 72.956 65.7715 71.7435C64.5591 70.5311 63.8779 68.8868 63.8779 67.1722V42.9288C63.8779 41.2142 64.5591 39.5698 65.7715 38.3574C66.9839 37.145 68.6282 36.4639 70.3428 36.4639H71.9591V33.2315C71.9591 32.8028 72.1293 32.3917 72.4324 32.0886C72.7355 31.7855 73.1466 31.6152 73.5753 31.6152ZM102.667 51.0099C102.667 50.1526 102.327 49.3304 101.721 48.7242C101.114 48.118 100.292 47.7775 99.4349 47.7775H70.3428C69.4855 47.7775 68.6633 48.118 68.0571 48.7242C67.4509 49.3304 67.1104 50.1526 67.1104 51.0099V67.1722C67.1104 68.0295 67.4509 68.8517 68.0571 69.4579C68.6633 70.0641 69.4855 70.4046 70.3428 70.4046H99.4349C100.292 70.4046 101.114 70.0641 101.721 69.4579C102.327 68.8517 102.667 68.0295 102.667 67.1722V51.0099Z" fill="#9AA4AD"/>
<g filter="url(#filter9_d_830_22)">
<path d="M76.2099 62.625V55.8369H77.8681V62.625H76.2099ZM76.9857 60.0261V58.6394H80.5155V60.0261H76.9857ZM76.9857 57.3012V55.8369H80.9034V57.3012H76.9857ZM82.2045 62.625V55.8369H86.9368V57.2527H83.8239V61.2092H87.0434V62.625H82.2045ZM82.9899 59.8516V58.4939H86.5101V59.8516H82.9899ZM88.4547 62.625V55.8369H91.4609C91.9328 55.8369 92.3272 55.9047 92.6439 56.0405C92.9672 56.1698 93.2129 56.3605 93.3809 56.6126C93.549 56.8583 93.6331 57.1589 93.6331 57.5145C93.6331 57.8959 93.5361 58.2159 93.3422 58.4745C93.1547 58.7331 92.8831 58.9141 92.5276 59.0176L92.5179 58.8139C92.8088 58.8851 93.0642 59.0047 93.284 59.1727C93.5102 59.3344 93.6848 59.5348 93.8076 59.774C93.9305 60.0067 93.9919 60.2718 93.9919 60.5692C93.9919 60.9118 93.9305 61.2124 93.8076 61.471C93.6913 61.7296 93.5232 61.9462 93.3034 62.1207C93.09 62.2888 92.8347 62.4149 92.5373 62.4989C92.2464 62.583 91.9231 62.625 91.5675 62.625H88.4547ZM90.0257 61.2383H91.4997C91.7712 61.2383 91.9813 61.1736 92.13 61.0443C92.2851 60.915 92.3627 60.7308 92.3627 60.4916C92.3627 60.3429 92.3239 60.2168 92.2464 60.1134C92.1752 60.0099 92.0718 59.9324 91.936 59.8807C91.8003 59.8289 91.6387 59.8031 91.4512 59.8031H90.0257V61.2383ZM90.0257 58.5521H91.2378C91.4059 58.5521 91.5481 58.5263 91.6645 58.4745C91.7809 58.4164 91.8682 58.3388 91.9263 58.2418C91.991 58.1384 92.0233 58.0188 92.0233 57.883C92.0233 57.6761 91.9522 57.5145 91.81 57.3981C91.6677 57.2818 91.4544 57.2236 91.17 57.2236H90.0257V58.5521Z" fill="#F59E0B"/>
</g>
<path fill-rule="evenodd" clip-rule="evenodd" d="M131.759 31.6152C132.188 31.6152 132.599 31.7855 132.902 32.0886C133.205 32.3917 133.375 32.8028 133.375 33.2315V36.4639H152.77V33.2315C152.77 32.8028 152.94 32.3917 153.243 32.0886C153.546 31.7855 153.957 31.6152 154.386 31.6152C154.815 31.6152 155.226 31.7855 155.529 32.0886C155.832 32.3917 156.002 32.8028 156.002 33.2315V36.4639H157.618C159.333 36.4639 160.977 37.145 162.19 38.3574C163.402 39.5698 164.083 41.2142 164.083 42.9288V67.1722C164.083 68.8868 163.402 70.5311 162.19 71.7435C160.977 72.956 159.333 73.6371 157.618 73.6371H128.526C126.812 73.6371 125.167 72.956 123.955 71.7435C122.743 70.5311 122.062 68.8868 122.062 67.1722V42.9288C122.062 41.2142 122.743 39.5698 123.955 38.3574C125.167 37.145 126.812 36.4639 128.526 36.4639H130.143V33.2315C130.143 32.8028 130.313 32.3917 130.616 32.0886C130.919 31.7855 131.33 31.6152 131.759 31.6152ZM160.851 51.0099C160.851 50.1526 160.51 49.3304 159.904 48.7242C159.298 48.118 158.476 47.7775 157.618 47.7775H128.526C127.669 47.7775 126.847 48.118 126.241 48.7242C125.635 49.3304 125.294 50.1526 125.294 51.0099V67.1722C125.294 68.0295 125.635 68.8517 126.241 69.4579C126.847 70.0641 127.669 70.4046 128.526 70.4046H157.618C158.476 70.4046 159.298 70.0641 159.904 69.4579C160.51 68.8517 160.851 68.0295 160.851 67.1722V51.0099Z" fill="#9AA4AD"/>
<g filter="url(#filter10_d_830_22)">
<path d="M132.865 62.625V55.8369H134.349L136.812 59.8419L135.765 59.8322L138.257 55.8369H139.692V62.625H138.082V60.5692C138.082 59.9744 138.095 59.441 138.121 58.9691C138.153 58.4907 138.205 58.022 138.276 57.563L138.46 58.0672L136.589 60.9668H135.929L134.097 58.0866L134.281 57.563C134.358 57.9961 134.41 58.4454 134.436 58.9109C134.468 59.3699 134.485 59.9227 134.485 60.5692V62.625H132.865ZM140.535 62.625L143.221 55.8369H144.627L147.294 62.625H145.626L144.336 59.1824C144.291 59.0467 144.239 58.9012 144.181 58.7461C144.129 58.5909 144.078 58.4293 144.026 58.2612C143.974 58.0931 143.926 57.9315 143.881 57.7763C143.835 57.6212 143.797 57.4757 143.764 57.3399L144.045 57.3302C144.007 57.4919 143.965 57.6503 143.919 57.8054C143.874 57.9606 143.826 58.1157 143.774 58.2709C143.722 58.426 143.667 58.5812 143.609 58.7364C143.557 58.8851 143.502 59.0402 143.444 59.2018L142.164 62.625H140.535ZM141.815 61.3256L142.339 60.0649H145.442L145.965 61.3256H141.815ZM148.14 62.625V55.8369H151.214C151.654 55.8369 152.048 55.9306 152.397 56.1181C152.747 56.3056 153.021 56.5642 153.222 56.8939C153.429 57.2171 153.532 57.5888 153.532 58.0091C153.532 58.4357 153.429 58.8172 153.222 59.1533C153.021 59.4895 152.747 59.7578 152.397 59.9582C152.048 60.1522 151.654 60.2491 151.214 60.2491H149.721V62.625H148.14ZM151.913 62.625L150.186 59.5509L151.883 59.3085L153.804 62.6347L151.913 62.625ZM149.721 58.9594H151.069C151.237 58.9594 151.382 58.9238 151.505 58.8527C151.635 58.7752 151.732 58.6717 151.796 58.5424C151.867 58.4131 151.903 58.2644 151.903 58.0963C151.903 57.9218 151.861 57.7699 151.777 57.6406C151.699 57.5113 151.586 57.4111 151.437 57.3399C151.295 57.2624 151.124 57.2236 150.923 57.2236H149.721V58.9594Z" fill="#F59E0B"/>
</g>
<path fill-rule="evenodd" clip-rule="evenodd" d="M15.3907 84.9492C15.8194 84.9492 16.2304 85.1195 16.5336 85.4226C16.8367 85.7257 17.0069 86.1368 17.0069 86.5654V89.7979H36.4016V86.5654C36.4016 86.1368 36.5719 85.7257 36.875 85.4226C37.1781 85.1195 37.5892 84.9492 38.0179 84.9492C38.4465 84.9492 38.8576 85.1195 39.1607 85.4226C39.4638 85.7257 39.6341 86.1368 39.6341 86.5654V89.7979H41.2503C42.9649 89.7979 44.6093 90.479 45.8217 91.6914C47.0341 92.9038 47.7152 94.5482 47.7152 96.2628V120.506C47.7152 122.221 47.0341 123.865 45.8217 125.078C44.6093 126.29 42.9649 126.971 41.2503 126.971H12.1583C10.4437 126.971 8.79929 126.29 7.58688 125.078C6.37448 123.865 5.69336 122.221 5.69336 120.506V96.2628C5.69336 94.5482 6.37448 92.9038 7.58688 91.6914C8.79929 90.479 10.4437 89.7979 12.1583 89.7979H13.7745V86.5654C13.7745 86.1368 13.9448 85.7257 14.2479 85.4226C14.551 85.1195 14.9621 84.9492 15.3907 84.9492ZM44.4827 104.344C44.4827 103.487 44.1422 102.664 43.536 102.058C42.9298 101.452 42.1076 101.111 41.2503 101.111H12.1583C11.301 101.111 10.4788 101.452 9.87257 102.058C9.26637 102.664 8.92581 103.487 8.92581 104.344V120.506C8.92581 121.363 9.26637 122.186 9.87257 122.792C10.4788 123.398 11.301 123.739 12.1583 123.739H41.2503C42.1076 123.739 42.9298 123.398 43.536 122.792C44.1422 122.186 44.4827 121.363 44.4827 120.506V104.344Z" fill="white"/>
<path fill-rule="evenodd" clip-rule="evenodd" d="M131.759 84.9492C132.188 84.9492 132.599 85.1195 132.902 85.4226C133.205 85.7257 133.375 86.1368 133.375 86.5654V89.7979H152.77V86.5654C152.77 86.1368 152.94 85.7257 153.243 85.4226C153.546 85.1195 153.957 84.9492 154.386 84.9492C154.815 84.9492 155.226 85.1195 155.529 85.4226C155.832 85.7257 156.002 86.1368 156.002 86.5654V89.7979H157.618C159.333 89.7979 160.977 90.479 162.19 91.6914C163.402 92.9038 164.083 94.5482 164.083 96.2628V120.506C164.083 122.221 163.402 123.865 162.19 125.078C160.977 126.29 159.333 126.971 157.618 126.971H128.526C126.812 126.971 125.167 126.29 123.955 125.078C122.743 123.865 122.062 122.221 122.062 120.506V96.2628C122.062 94.5482 122.743 92.9038 123.955 91.6914C125.167 90.479 126.812 89.7979 128.526 89.7979H130.143V86.5654C130.143 86.1368 130.313 85.7257 130.616 85.4226C130.919 85.1195 131.33 84.9492 131.759 84.9492ZM160.851 104.344C160.851 103.487 160.51 102.664 159.904 102.058C159.298 101.452 158.476 101.111 157.618 101.111H128.526C127.669 101.111 126.847 101.452 126.241 102.058C125.635 102.664 125.294 103.487 125.294 104.344V120.506C125.294 121.363 125.635 122.186 126.241 122.792C126.847 123.398 127.669 123.739 128.526 123.739H157.618C158.476 123.739 159.298 123.398 159.904 122.792C160.51 122.186 160.851 121.363 160.851 120.506V104.344Z" fill="white"/>
<path fill-rule="evenodd" clip-rule="evenodd" d="M73.5753 84.9492C74.0039 84.9492 74.415 85.1195 74.7181 85.4226C75.0212 85.7257 75.1915 86.1368 75.1915 86.5654V89.7979H94.5862V86.5654C94.5862 86.1368 94.7565 85.7257 95.0596 85.4226C95.3627 85.1195 95.7738 84.9492 96.2024 84.9492C96.6311 84.9492 97.0422 85.1195 97.3453 85.4226C97.6484 85.7257 97.8186 86.1368 97.8186 86.5654V89.7979H99.4349C101.149 89.7979 102.794 90.479 104.006 91.6914C105.219 92.9038 105.9 94.5482 105.9 96.2628V120.506C105.9 122.221 105.219 123.865 104.006 125.078C102.794 126.29 101.149 126.971 99.4349 126.971H70.3428C68.6282 126.971 66.9839 126.29 65.7715 125.078C64.5591 123.865 63.8779 122.221 63.8779 120.506V96.2628C63.8779 94.5482 64.5591 92.9038 65.7715 91.6914C66.9839 90.479 68.6282 89.7979 70.3428 89.7979H71.9591V86.5654C71.9591 86.1368 72.1293 85.7257 72.4324 85.4226C72.7355 85.1195 73.1466 84.9492 73.5753 84.9492ZM102.667 104.344C102.667 103.487 102.327 102.664 101.721 102.058C101.114 101.452 100.292 101.111 99.4349 101.111H70.3428C69.4855 101.111 68.6633 101.452 68.0571 102.058C67.4509 102.664 67.1104 103.487 67.1104 104.344V120.506C67.1104 121.363 67.4509 122.186 68.0571 122.792C68.6633 123.398 69.4855 123.739 70.3428 123.739H99.4349C100.292 123.739 101.114 123.398 101.721 122.792C102.327 122.186 102.667 121.363 102.667 120.506V104.344Z" fill="white"/>
<path fill-rule="evenodd" clip-rule="evenodd" d="M189.943 84.9492C190.372 84.9492 190.783 85.1195 191.086 85.4226C191.389 85.7257 191.56 86.1368 191.56 86.5654V89.7979H210.954V86.5654C210.954 86.1368 211.125 85.7257 211.428 85.4226C211.731 85.1195 212.142 84.9492 212.571 84.9492C212.999 84.9492 213.41 85.1195 213.713 85.4226C214.017 85.7257 214.187 86.1368 214.187 86.5654V89.7979H215.803C217.518 89.7979 219.162 90.479 220.374 91.6914C221.587 92.9038 222.268 94.5482 222.268 96.2628V120.506C222.268 122.221 221.587 123.865 220.374 125.078C219.162 126.29 217.518 126.971 215.803 126.971H186.711C184.996 126.971 183.352 126.29 182.14 125.078C180.927 123.865 180.246 122.221 180.246 120.506V96.2628C180.246 94.5482 180.927 92.9038 182.14 91.6914C183.352 90.479 184.996 89.7979 186.711 89.7979H188.327V86.5654C188.327 86.1368 188.497 85.7257 188.801 85.4226C189.104 85.1195 189.515 84.9492 189.943 84.9492ZM219.035 104.344C219.035 103.487 218.695 102.664 218.089 102.058C217.483 101.452 216.66 101.111 215.803 101.111H186.711C185.854 101.111 185.032 101.452 184.425 102.058C183.819 102.664 183.479 103.487 183.479 104.344V120.506C183.479 121.363 183.819 122.186 184.425 122.792C185.032 123.398 185.854 123.739 186.711 123.739H215.803C216.66 123.739 217.483 123.398 218.089 122.792C218.695 122.186 219.035 121.363 219.035 120.506V104.344Z" fill="white"/>
<path fill-rule="evenodd" clip-rule="evenodd" d="M131.759 136.67C132.188 136.67 132.599 136.84 132.902 137.143C133.205 137.446 133.375 137.857 133.375 138.286V141.519H152.77V138.286C152.77 137.857 152.94 137.446 153.243 137.143C153.546 136.84 153.957 136.67 154.386 136.67C154.815 136.67 155.226 136.84 155.529 137.143C155.832 137.446 156.002 137.857 156.002 138.286V141.519H157.618C159.333 141.519 160.977 142.2 162.19 143.412C163.402 144.625 164.083 146.269 164.083 147.983V172.227C164.083 173.941 163.402 175.586 162.19 176.798C160.977 178.011 159.333 178.692 157.618 178.692H128.526C126.812 178.692 125.167 178.011 123.955 176.798C122.743 175.586 122.062 173.941 122.062 172.227V147.983C122.062 146.269 122.743 144.625 123.955 143.412C125.167 142.2 126.812 141.519 128.526 141.519H130.143V138.286C130.143 137.857 130.313 137.446 130.616 137.143C130.919 136.84 131.33 136.67 131.759 136.67ZM160.851 156.065C160.851 155.207 160.51 154.385 159.904 153.779C159.298 153.173 158.476 152.832 157.618 152.832H128.526C127.669 152.832 126.847 153.173 126.241 153.779C125.635 154.385 125.294 155.207 125.294 156.065V172.227C125.294 173.084 125.635 173.906 126.241 174.513C126.847 175.119 127.669 175.459 128.526 175.459H157.618C158.476 175.459 159.298 175.119 159.904 174.513C160.51 173.906 160.851 173.084 160.851 172.227V156.065Z" fill="white"/>
<path fill-rule="evenodd" clip-rule="evenodd" d="M15.3907 136.67C15.8194 136.67 16.2304 136.84 16.5336 137.143C16.8367 137.446 17.0069 137.857 17.0069 138.286V141.519H36.4016V138.286C36.4016 137.857 36.5719 137.446 36.875 137.143C37.1781 136.84 37.5892 136.67 38.0179 136.67C38.4465 136.67 38.8576 136.84 39.1607 137.143C39.4638 137.446 39.6341 137.857 39.6341 138.286V141.519H41.2503C42.9649 141.519 44.6093 142.2 45.8217 143.412C47.0341 144.625 47.7152 146.269 47.7152 147.983V172.227C47.7152 173.941 47.0341 175.586 45.8217 176.798C44.6093 178.011 42.9649 178.692 41.2503 178.692H12.1583C10.4437 178.692 8.79929 178.011 7.58688 176.798C6.37448 175.586 5.69336 173.941 5.69336 172.227V147.983C5.69336 146.269 6.37448 144.625 7.58688 143.412C8.79929 142.2 10.4437 141.519 12.1583 141.519H13.7745V138.286C13.7745 137.857 13.9448 137.446 14.2479 137.143C14.551 136.84 14.9621 136.67 15.3907 136.67ZM44.4827 156.065C44.4827 155.207 44.1422 154.385 43.536 153.779C42.9298 153.173 42.1076 152.832 41.2503 152.832H12.1583C11.301 152.832 10.4788 153.173 9.87257 153.779C9.26637 154.385 8.92581 155.207 8.92581 156.065V172.227C8.92581 173.084 9.26637 173.906 9.87257 174.513C10.4788 175.119 11.301 175.459 12.1583 175.459H41.2503C42.1076 175.459 42.9298 175.119 43.536 174.513C44.1422 173.906 44.4827 173.084 44.4827 172.227V156.065Z" fill="white"/>
<path fill-rule="evenodd" clip-rule="evenodd" d="M73.5753 136.67C74.0039 136.67 74.415 136.84 74.7181 137.143C75.0212 137.446 75.1915 137.857 75.1915 138.286V141.519H94.5862V138.286C94.5862 137.857 94.7565 137.446 95.0596 137.143C95.3627 136.84 95.7738 136.67 96.2024 136.67C96.6311 136.67 97.0422 136.84 97.3453 137.143C97.6484 137.446 97.8186 137.857 97.8186 138.286V141.519H99.4349C101.149 141.519 102.794 142.2 104.006 143.412C105.219 144.625 105.9 146.269 105.9 147.983V172.227C105.9 173.941 105.219 175.586 104.006 176.798C102.794 178.011 101.149 178.692 99.4349 178.692H70.3428C68.6282 178.692 66.9839 178.011 65.7715 176.798C64.5591 175.586 63.8779 173.941 63.8779 172.227V147.983C63.8779 146.269 64.5591 144.625 65.7715 143.412C66.9839 142.2 68.6282 141.519 70.3428 141.519H71.9591V138.286C71.9591 137.857 72.1293 137.446 72.4324 137.143C72.7355 136.84 73.1466 136.67 73.5753 136.67ZM102.667 156.065C102.667 155.207 102.327 154.385 101.721 153.779C101.114 153.173 100.292 152.832 99.4349 152.832H70.3428C69.4855 152.832 68.6633 153.173 68.0571 153.779C67.4509 154.385 67.1104 155.207 67.1104 156.065V172.227C67.1104 173.084 67.4509 173.906 68.0571 174.513C68.6633 175.119 69.4855 175.459 70.3428 175.459H99.4349C100.292 175.459 101.114 175.119 101.721 174.513C102.327 173.906 102.667 173.084 102.667 172.227V156.065Z" fill="white"/>
<path fill-rule="evenodd" clip-rule="evenodd" d="M189.943 136.67C190.372 136.67 190.783 136.84 191.086 137.143C191.389 137.446 191.56 137.857 191.56 138.286V141.519H210.954V138.286C210.954 137.857 211.125 137.446 211.428 137.143C211.731 136.84 212.142 136.67 212.571 136.67C212.999 136.67 213.41 136.84 213.713 137.143C214.017 137.446 214.187 137.857 214.187 138.286V141.519H215.803C217.518 141.519 219.162 142.2 220.374 143.412C221.587 144.625 222.268 146.269 222.268 147.983V172.227C222.268 173.941 221.587 175.586 220.374 176.798C219.162 178.011 217.518 178.692 215.803 178.692H186.711C184.996 178.692 183.352 178.011 182.14 176.798C180.927 175.586 180.246 173.941 180.246 172.227V147.983C180.246 146.269 180.927 144.625 182.14 143.412C183.352 142.2 184.996 141.519 186.711 141.519H188.327V138.286C188.327 137.857 188.497 137.446 188.801 137.143C189.104 136.84 189.515 136.67 189.943 136.67ZM219.035 156.065C219.035 155.207 218.695 154.385 218.089 153.779C217.483 153.173 216.66 152.832 215.803 152.832H186.711C185.854 152.832 185.032 153.173 184.425 153.779C183.819 154.385 183.479 155.207 183.479 156.065V172.227C183.479 173.084 183.819 173.906 184.425 174.513C185.032 175.119 185.854 175.459 186.711 175.459H215.803C216.66 175.459 217.483 175.119 218.089 174.513C218.695 173.906 219.035 173.084 219.035 172.227V156.065Z" fill="white"/>
<g filter="url(#filter11_d_830_22)">
<path d="M191.062 62.625L193.748 55.8369H195.154L197.821 62.625H196.153L194.863 59.1824C194.818 59.0467 194.766 58.9012 194.708 58.7461C194.657 58.5909 194.605 58.4293 194.553 58.2612C194.501 58.0931 194.453 57.9315 194.408 57.7763C194.362 57.6212 194.324 57.4757 194.291 57.3399L194.572 57.3302C194.534 57.4919 194.492 57.6503 194.446 57.8054C194.401 57.9606 194.353 58.1157 194.301 58.2709C194.249 58.426 194.194 58.5812 194.136 58.7364C194.084 58.8851 194.029 59.0402 193.971 59.2018L192.691 62.625H191.062ZM192.342 61.3256L192.866 60.0649H195.969L196.493 61.3256H192.342ZM198.667 62.625V55.8369H201.673C202.145 55.8369 202.54 55.9047 202.857 56.0405C203.18 56.1698 203.425 56.3605 203.594 56.6126C203.762 56.8583 203.846 57.1589 203.846 57.5145C203.846 57.8959 203.749 58.2159 203.555 58.4745C203.367 58.7331 203.096 58.9141 202.74 59.0176L202.731 58.8139C203.021 58.8851 203.277 59.0047 203.497 59.1727C203.723 59.3344 203.897 59.5348 204.02 59.774C204.143 60.0067 204.205 60.2718 204.205 60.5692C204.205 60.9118 204.143 61.2124 204.02 61.471C203.904 61.7296 203.736 61.9462 203.516 62.1207C203.303 62.2888 203.047 62.4149 202.75 62.4989C202.459 62.583 202.136 62.625 201.78 62.625H198.667ZM200.238 61.2383H201.712C201.984 61.2383 202.194 61.1736 202.343 61.0443C202.498 60.915 202.575 60.7308 202.575 60.4916C202.575 60.3429 202.537 60.2168 202.459 60.1134C202.388 60.0099 202.284 59.9324 202.149 59.8807C202.013 59.8289 201.851 59.8031 201.664 59.8031H200.238V61.2383ZM200.238 58.5521H201.45C201.619 58.5521 201.761 58.5263 201.877 58.4745C201.994 58.4164 202.081 58.3388 202.139 58.2418C202.204 58.1384 202.236 58.0188 202.236 57.883C202.236 57.6761 202.165 57.5145 202.023 57.3981C201.88 57.2818 201.667 57.2236 201.383 57.2236H200.238V58.5521ZM205.467 62.625V55.8369H208.541C208.98 55.8369 209.375 55.9306 209.724 56.1181C210.073 56.3056 210.348 56.5642 210.548 56.8939C210.755 57.2171 210.859 57.5888 210.859 58.0091C210.859 58.4357 210.755 58.8172 210.548 59.1533C210.348 59.4895 210.073 59.7578 209.724 59.9582C209.375 60.1522 208.98 60.2491 208.541 60.2491H207.047V62.625H205.467ZM209.239 62.625L207.513 59.5509L209.21 59.3085L211.13 62.6347L209.239 62.625ZM207.047 58.9594H208.395C208.564 58.9594 208.709 58.9238 208.832 58.8527C208.961 58.7752 209.058 58.6717 209.123 58.5424C209.194 58.4131 209.229 58.2644 209.229 58.0963C209.229 57.9218 209.187 57.7699 209.103 57.6406C209.026 57.5113 208.913 57.4111 208.764 57.3399C208.622 57.2624 208.45 57.2236 208.25 57.2236H207.047V58.9594Z" fill="white"/>
</g>
<path fill-rule="evenodd" clip-rule="evenodd" d="M189.943 31.6152C190.372 31.6152 190.783 31.7855 191.086 32.0886C191.389 32.3917 191.56 32.8028 191.56 33.2315V36.4639H210.954V33.2315C210.954 32.8028 211.125 32.3917 211.428 32.0886C211.731 31.7855 212.142 31.6152 212.571 31.6152C212.999 31.6152 213.41 31.7855 213.713 32.0886C214.017 32.3917 214.187 32.8028 214.187 33.2315V36.4639H215.803C217.518 36.4639 219.162 37.145 220.374 38.3574C221.587 39.5698 222.268 41.2142 222.268 42.9288V67.1722C222.268 68.8868 221.587 70.5311 220.374 71.7435C219.162 72.956 217.518 73.6371 215.803 73.6371H186.711C184.996 73.6371 183.352 72.956 182.14 71.7435C180.927 70.5311 180.246 68.8868 180.246 67.1722V42.9288C180.246 41.2142 180.927 39.5698 182.14 38.3574C183.352 37.145 184.996 36.4639 186.711 36.4639H188.327V33.2315C188.327 32.8028 188.497 32.3917 188.801 32.0886C189.104 31.7855 189.515 31.6152 189.943 31.6152ZM219.035 51.0099C219.035 50.1526 218.695 49.3304 218.089 48.7242C217.483 48.118 216.66 47.7775 215.803 47.7775H186.711C185.854 47.7775 185.032 48.118 184.425 48.7242C183.819 49.3304 183.479 50.1526 183.479 51.0099V67.1722C183.479 68.0295 183.819 68.8517 184.425 69.4579C185.032 70.0641 185.854 70.4046 186.711 70.4046H215.803C216.66 70.4046 217.483 70.0641 218.089 69.4579C218.695 68.8517 219.035 68.0295 219.035 67.1722V51.0099Z" fill="white"/>
<path d="M97.3586 19.1255C96.7194 19.1255 96.1974 18.6068 96.238 17.9689C96.365 15.9718 96.8204 14.0066 97.5882 12.153C98.5038 9.94239 99.8459 7.93382 101.538 6.24192C103.23 4.55002 105.238 3.20793 107.449 2.29228C109.659 1.37663 112.029 0.905352 114.421 0.905352C116.814 0.905352 119.183 1.37663 121.394 2.29228C123.605 3.20793 125.613 4.55002 127.305 6.24192C128.997 7.93382 130.339 9.9424 131.255 12.153C132.022 14.0066 132.478 15.9719 132.605 17.9689C132.645 18.6068 132.123 19.1255 131.484 19.1255C130.845 19.1255 130.331 18.6067 130.285 17.9692C130.161 16.2763 129.768 14.6115 129.116 13.0388C128.317 11.1091 127.145 9.35565 125.668 7.87869C124.191 6.40174 122.438 5.23015 120.508 4.43083C118.578 3.63151 116.51 3.2201 114.421 3.2201C112.333 3.2201 110.264 3.63151 108.335 4.43083C106.405 5.23015 104.652 6.40173 103.175 7.87869C101.698 9.35565 100.526 11.109 99.7267 13.0388C99.0753 14.6115 98.6815 16.2763 98.5581 17.9692C98.5116 18.6067 97.9978 19.1255 97.3586 19.1255Z" fill="#F59E0B"/>
<rect x="138.878" y="21.7832" width="10.4527" height="2.35186" rx="1.17593" transform="rotate(135 138.878 21.7832)" fill="#F59E0B"/>
<rect x="132.675" y="17.1387" width="10.4527" height="2.35186" rx="1.17593" transform="rotate(90 132.675 17.1387)" fill="#F59E0B"/>
<rect x="125.691" y="20.1211" width="10.4527" height="2.35186" rx="1.17593" transform="rotate(45 125.691 20.1211)" fill="#F59E0B"/>
<path d="M39.175 19.1255C38.5358 19.1255 38.0138 18.6068 38.0544 17.9689C38.1814 15.9718 38.6368 14.0066 39.4046 12.153C40.3202 9.94239 41.6623 7.93382 43.3542 6.24192C45.0461 4.55002 47.0547 3.20793 49.2653 2.29228C51.4759 1.37663 53.8451 0.905352 56.2378 0.905352C58.6305 0.905352 60.9998 1.37663 63.2104 2.29228C65.421 3.20793 67.4295 4.55002 69.1214 6.24192C70.8133 7.93382 72.1554 9.9424 73.0711 12.153C73.8389 14.0066 74.2942 15.9719 74.4213 17.9689C74.4618 18.6068 73.9398 19.1255 73.3006 19.1255C72.6614 19.1255 72.1476 18.6067 72.1012 17.9692C71.9778 16.2763 71.584 14.6115 70.9325 13.0388C70.1332 11.1091 68.9616 9.35565 67.4847 7.87869C66.0077 6.40174 64.2543 5.23015 62.3246 4.43083C60.3948 3.63151 58.3266 3.2201 56.2378 3.2201C54.1491 3.2201 52.0808 3.63151 50.1511 4.43083C48.2214 5.23015 46.468 6.40173 44.991 7.87869C43.514 9.35565 42.3425 11.109 41.5431 13.0388C40.8917 14.6115 40.4979 16.2763 40.3745 17.9692C40.328 18.6067 39.8142 19.1255 39.175 19.1255Z" fill="#F59E0B"/>
<rect x="80.6943" y="21.7832" width="10.4527" height="2.35186" rx="1.17593" transform="rotate(135 80.6943 21.7832)" fill="#F59E0B"/>
<rect x="74.4912" y="17.1387" width="10.4527" height="2.35186" rx="1.17593" transform="rotate(90 74.4912 17.1387)" fill="#F59E0B"/>
<rect x="67.5078" y="20.1211" width="10.4527" height="2.35186" rx="1.17593" transform="rotate(45 67.5078 20.1211)" fill="#F59E0B"/>
<defs>
<filter id="filter0_d_830_22" x="8.49358" y="50.1792" width="36.6994" height="24.5675" filterUnits="userSpaceOnUse" color-interpolation-filters="sRGB">
<feFlood flood-opacity="0" result="BackgroundImageFix"/>
<feColorMatrix in="SourceAlpha" type="matrix" values="0 0 0 0 0 0 0 0 0 0 0 0 0 0 0 0 0 0 127 0" result="hardAlpha"/>
<feOffset dy="3.23245"/>
<feGaussianBlur stdDeviation="4.44462"/>
<feComposite in2="hardAlpha" operator="out"/>
<feColorMatrix type="matrix" values="0 0 0 0 0 0 0 0 0 0 0 0 0 0 0 0 0 0 0.25 0"/>
<feBlend mode="normal" in2="BackgroundImageFix" result="effect1_dropShadow_830_22"/>
<feBlend mode="normal" in="SourceGraphic" in2="effect1_dropShadow_830_22" result="shape"/>
</filter>
<filter id="filter1_d_830_22" x="8.06194" y="104.324" width="38.1925" height="24.5675" filterUnits="userSpaceOnUse" color-interpolation-filters="sRGB">
<feFlood flood-opacity="0" result="BackgroundImageFix"/>
<feColorMatrix in="SourceAlpha" type="matrix" values="0 0 0 0 0 0 0 0 0 0 0 0 0 0 0 0 0 0 127 0" result="hardAlpha"/>
<feOffset dy="3.23245"/>
<feGaussianBlur stdDeviation="4.44462"/>
<feComposite in2="hardAlpha" operator="out"/>
<feColorMatrix type="matrix" values="0 0 0 0 0 0 0 0 0 0 0 0 0 0 0 0 0 0 0.25 0"/>
<feBlend mode="normal" in2="BackgroundImageFix" result="effect1_dropShadow_830_22"/>
<feBlend mode="normal" in="SourceGraphic" in2="effect1_dropShadow_830_22" result="shape"/>
</filter>
<filter id="filter2_d_830_22" x="8.61565" y="155.888" width="35.9835" height="24.8195" filterUnits="userSpaceOnUse" color-interpolation-filters="sRGB">
<feFlood flood-opacity="0" result="BackgroundImageFix"/>
<feColorMatrix in="SourceAlpha" type="matrix" values="0 0 0 0 0 0 0 0 0 0 0 0 0 0 0 0 0 0 127 0" result="hardAlpha"/>
<feOffset dy="3.23245"/>
<feGaussianBlur stdDeviation="4.44462"/>
<feComposite in2="hardAlpha" operator="out"/>
<feColorMatrix type="matrix" values="0 0 0 0 0 0 0 0 0 0 0 0 0 0 0 0 0 0 0.25 0"/>
<feBlend mode="normal" in2="BackgroundImageFix" result="effect1_dropShadow_830_22"/>
<feBlend mode="normal" in="SourceGraphic" in2="effect1_dropShadow_830_22" result="shape"/>
</filter>
<filter id="filter3_d_830_22" x="65.5444" y="104.316" width="38.2462" height="24.673" filterUnits="userSpaceOnUse" color-interpolation-filters="sRGB">
<feFlood flood-opacity="0" result="BackgroundImageFix"/>
<feColorMatrix in="SourceAlpha" type="matrix" values="0 0 0 0 0 0 0 0 0 0 0 0 0 0 0 0 0 0 127 0" result="hardAlpha"/>
<feOffset dy="3.23245"/>
<feGaussianBlur stdDeviation="4.44462"/>
<feComposite in2="hardAlpha" operator="out"/>
<feColorMatrix type="matrix" values="0 0 0 0 0 0 0 0 0 0 0 0 0 0 0 0 0 0 0.25 0"/>
<feBlend mode="normal" in2="BackgroundImageFix" result="effect1_dropShadow_830_22"/>
<feBlend mode="normal" in="SourceGraphic" in2="effect1_dropShadow_830_22" result="shape"/>
</filter>
<filter id="filter4_d_830_22" x="65.9516" y="155.888" width="37.9777" height="24.8195" filterUnits="userSpaceOnUse" color-interpolation-filters="sRGB">
<feFlood flood-opacity="0" result="BackgroundImageFix"/>
<feColorMatrix in="SourceAlpha" type="matrix" values="0 0 0 0 0 0 0 0 0 0 0 0 0 0 0 0 0 0 127 0" result="hardAlpha"/>
<feOffset dy="3.23245"/>
<feGaussianBlur stdDeviation="4.44462"/>
<feComposite in2="hardAlpha" operator="out"/>
<feColorMatrix type="matrix" values="0 0 0 0 0 0 0 0 0 0 0 0 0 0 0 0 0 0 0.25 0"/>
<feBlend mode="normal" in2="BackgroundImageFix" result="effect1_dropShadow_830_22"/>
<feBlend mode="normal" in="SourceGraphic" in2="effect1_dropShadow_830_22" result="shape"/>
</filter>
<filter id="filter5_d_830_22" x="124.685" y="104.316" width="36.7824" height="24.673" filterUnits="userSpaceOnUse" color-interpolation-filters="sRGB">
<feFlood flood-opacity="0" result="BackgroundImageFix"/>
<feColorMatrix in="SourceAlpha" type="matrix" values="0 0 0 0 0 0 0 0 0 0 0 0 0 0 0 0 0 0 127 0" result="hardAlpha"/>
<feOffset dy="3.23245"/>
<feGaussianBlur stdDeviation="4.44462"/>
<feComposite in2="hardAlpha" operator="out"/>
<feColorMatrix type="matrix" values="0 0 0 0 0 0 0 0 0 0 0 0 0 0 0 0 0 0 0.25 0"/>
<feBlend mode="normal" in2="BackgroundImageFix" result="effect1_dropShadow_830_22"/>
<feBlend mode="normal" in="SourceGraphic" in2="effect1_dropShadow_830_22" result="shape"/>
</filter>
<filter id="filter6_d_830_22" x="123.862" y="155.888" width="39.2091" height="24.8195" filterUnits="userSpaceOnUse" color-interpolation-filters="sRGB">
<feFlood flood-opacity="0" result="BackgroundImageFix"/>
<feColorMatrix in="SourceAlpha" type="matrix" values="0 0 0 0 0 0 0 0 0 0 0 0 0 0 0 0 0 0 127 0" result="hardAlpha"/>
<feOffset dy="3.23245"/>
<feGaussianBlur stdDeviation="4.44462"/>
<feComposite in2="hardAlpha" operator="out"/>
<feColorMatrix type="matrix" values="0 0 0 0 0 0 0 0 0 0 0 0 0 0 0 0 0 0 0.25 0"/>
<feBlend mode="normal" in2="BackgroundImageFix" result="effect1_dropShadow_830_22"/>
<feBlend mode="normal" in="SourceGraphic" in2="effect1_dropShadow_830_22" result="shape"/>
</filter>
<filter id="filter7_d_830_22" x="181.59" y="104.189" width="38.9328" height="24.8" filterUnits="userSpaceOnUse" color-interpolation-filters="sRGB">
<feFlood flood-opacity="0" result="BackgroundImageFix"/>
<feColorMatrix in="SourceAlpha" type="matrix" values="0 0 0 0 0 0 0 0 0 0 0 0 0 0 0 0 0 0 127 0" result="hardAlpha"/>
<feOffset dy="3.23245"/>
<feGaussianBlur stdDeviation="4.44462"/>
<feComposite in2="hardAlpha" operator="out"/>
<feColorMatrix type="matrix" values="0 0 0 0 0 0 0 0 0 0 0 0 0 0 0 0 0 0 0.25 0"/>
<feBlend mode="normal" in2="BackgroundImageFix" result="effect1_dropShadow_830_22"/>
<feBlend mode="normal" in="SourceGraphic" in2="effect1_dropShadow_830_22" result="shape"/>
</filter>
<filter id="filter8_d_830_22" x="183.556" y="155.908" width="36.0275" height="24.8" filterUnits="userSpaceOnUse" color-interpolation-filters="sRGB">
<feFlood flood-opacity="0" result="BackgroundImageFix"/>
<feColorMatrix in="SourceAlpha" type="matrix" values="0 0 0 0 0 0 0 0 0 0 0 0 0 0 0 0 0 0 127 0" result="hardAlpha"/>
<feOffset dy="3.23245"/>
<feGaussianBlur stdDeviation="4.44462"/>
<feComposite in2="hardAlpha" operator="out"/>
<feColorMatrix type="matrix" values="0 0 0 0 0 0 0 0 0 0 0 0 0 0 0 0 0 0 0.25 0"/>
<feBlend mode="normal" in2="BackgroundImageFix" result="effect1_dropShadow_830_22"/>
<feBlend mode="normal" in="SourceGraphic" in2="effect1_dropShadow_830_22" result="shape"/>
</filter>
<filter id="filter9_d_830_22" x="67.3207" y="50.1792" width="35.5607" height="24.5675" filterUnits="userSpaceOnUse" color-interpolation-filters="sRGB">
<feFlood flood-opacity="0" result="BackgroundImageFix"/>
<feColorMatrix in="SourceAlpha" type="matrix" values="0 0 0 0 0 0 0 0 0 0 0 0 0 0 0 0 0 0 127 0" result="hardAlpha"/>
<feOffset dy="3.23245"/>
<feGaussianBlur stdDeviation="4.44462"/>
<feComposite in2="hardAlpha" operator="out"/>
<feColorMatrix type="matrix" values="0 0 0 0 0 0 0 0 0 0 0 0 0 0 0 0 0 0 0.25 0"/>
<feBlend mode="normal" in2="BackgroundImageFix" result="effect1_dropShadow_830_22"/>
<feBlend mode="normal" in="SourceGraphic" in2="effect1_dropShadow_830_22" result="shape"/>
</filter>
<filter id="filter10_d_830_22" x="123.976" y="50.1792" width="38.7169" height="24.5773" filterUnits="userSpaceOnUse" color-interpolation-filters="sRGB">
<feFlood flood-opacity="0" result="BackgroundImageFix"/>
<feColorMatrix in="SourceAlpha" type="matrix" values="0 0 0 0 0 0 0 0 0 0 0 0 0 0 0 0 0 0 127 0" result="hardAlpha"/>
<feOffset dy="3.23245"/>
<feGaussianBlur stdDeviation="4.44462"/>
<feComposite in2="hardAlpha" operator="out"/>
<feColorMatrix type="matrix" values="0 0 0 0 0 0 0 0 0 0 0 0 0 0 0 0 0 0 0.25 0"/>
<feBlend mode="normal" in2="BackgroundImageFix" result="effect1_dropShadow_830_22"/>
<feBlend mode="normal" in="SourceGraphic" in2="effect1_dropShadow_830_22" result="shape"/>
</filter>
<filter id="filter11_d_830_22" x="182.173" y="50.1792" width="37.8459" height="24.5773" filterUnits="userSpaceOnUse" color-interpolation-filters="sRGB">
<feFlood flood-opacity="0" result="BackgroundImageFix"/>
<feColorMatrix in="SourceAlpha" type="matrix" values="0 0 0 0 0 0 0 0 0 0 0 0 0 0 0 0 0 0 127 0" result="hardAlpha"/>
<feOffset dy="3.23245"/>
<feGaussianBlur stdDeviation="4.44462"/>
<feComposite in2="hardAlpha" operator="out"/>
<feColorMatrix type="matrix" values="0 0 0 0 0 0 0 0 0 0 0 0 0 0 0 0 0 0 0.25 0"/>
<feBlend mode="normal" in2="BackgroundImageFix" result="effect1_dropShadow_830_22"/>
<feBlend mode="normal" in="SourceGraphic" in2="effect1_dropShadow_830_22" result="shape"/>
</filter>
</defs>
</svg>
