<svg width="205" height="201" viewBox="0 0 205 201" fill="none" xmlns="http://www.w3.org/2000/svg">
<path d="M24.1029 80.9131V69.9551L24.8399 71.5842L21.9501 72.9419L21.3683 70.0133L25.2472 68.1126H27.3612V80.9131H24.1029ZM21.6398 81.8828V78.9542H29.9019V81.8828H21.6398Z" fill="white"/>
<path d="M58.4987 61.6797L57.8393 60.0505L61.7376 55.7449C61.9703 55.4992 62.216 55.2213 62.4746 54.9109C62.7332 54.6006 62.9789 54.2838 63.2116 53.9606C63.4573 53.6244 63.6512 53.3012 63.7934 52.9909C63.9486 52.6805 64.0262 52.4026 64.0262 52.1569C64.0262 51.8983 63.968 51.672 63.8516 51.4781C63.7482 51.2841 63.5866 51.1354 63.3667 51.032C63.1599 50.9156 62.8883 50.8574 62.5522 50.8574C62.2677 50.8574 61.9897 50.935 61.7182 51.0902C61.4467 51.2453 61.1881 51.4781 60.9424 51.7884C60.7097 52.0858 60.4899 52.4672 60.283 52.9327L57.8393 51.5751C58.1108 50.8251 58.4922 50.1657 58.9835 49.5968C59.4878 49.0279 60.0761 48.5818 60.7485 48.2586C61.4208 47.9353 62.1384 47.7802 62.9013 47.7931C63.7029 47.7931 64.4205 47.9612 65.0541 48.2973C65.7006 48.6335 66.2113 49.099 66.5863 49.6938C66.9742 50.2756 67.1681 50.9609 67.1681 51.7496C67.1681 52.0987 67.1164 52.4607 67.0129 52.8357C66.9224 53.2107 66.7673 53.6115 66.5475 54.0382C66.3406 54.4519 66.0626 54.898 65.7135 55.3764C65.3644 55.8548 64.9377 56.372 64.4335 56.928L61.4273 60.2057L61.02 58.7511H67.7693V61.6797H58.4987Z" fill="white"/>
<path d="M100.446 46.5182C99.3472 46.5182 98.3903 46.2919 97.5758 45.8394C96.7612 45.3739 96.0113 44.5787 95.326 43.4538L97.7309 41.941C98.0025 42.3806 98.2869 42.7362 98.5843 43.0077C98.8946 43.2793 99.2114 43.4797 99.5346 43.609C99.8708 43.7253 100.213 43.7835 100.563 43.7835C100.925 43.7835 101.254 43.7059 101.552 43.5508C101.849 43.3827 102.088 43.1564 102.269 42.872C102.45 42.5746 102.541 42.2319 102.541 41.844C102.541 41.4432 102.463 41.1135 102.308 40.8549C102.153 40.5834 101.927 40.3765 101.629 40.2343C101.332 40.0921 100.97 40.0209 100.543 40.0209C100.362 40.0209 100.155 40.0468 99.9225 40.0985C99.7027 40.1373 99.47 40.1955 99.2243 40.2731C98.9787 40.3507 98.7265 40.4412 98.4679 40.5446L97.7503 38.6245L101.009 35.0365L101.901 35.5408L96.2763 35.4438V32.6316H104.616L105.237 33.834L100.757 38.6245L100 37.713C100.104 37.6742 100.272 37.6354 100.504 37.5966C100.737 37.5449 100.957 37.519 101.164 37.519C101.759 37.519 102.321 37.6289 102.851 37.8487C103.381 38.0685 103.853 38.3724 104.267 38.7603C104.681 39.1482 105.004 39.6007 105.237 40.1179C105.469 40.6351 105.586 41.1976 105.586 41.8053C105.586 42.7103 105.353 43.5185 104.888 44.2296C104.435 44.9407 103.821 45.5032 103.045 45.9169C102.269 46.3178 101.403 46.5182 100.446 46.5182Z" fill="white"/>
<path d="M140.526 30.1621V19.2429L142.252 19.3011L137.442 25.1777L136.996 24.5958H145.937V27.3305H135.503L134.165 24.7704L141.03 16.4695H143.726V30.1621H140.526Z" fill="white"/>
<path d="M180.202 14.1358C179.181 14.1358 178.25 13.9354 177.409 13.5345C176.582 13.1208 175.896 12.526 175.353 11.7502L177.138 9.77196C177.668 10.3667 178.153 10.7676 178.592 10.9744C179.045 11.1813 179.543 11.2847 180.086 11.2847C180.499 11.2847 180.868 11.2007 181.191 11.0326C181.514 10.8645 181.767 10.6318 181.948 10.3344C182.129 10.037 182.219 9.70731 182.219 9.34527C182.219 8.95738 182.122 8.61474 181.928 8.31735C181.747 8.00704 181.495 7.76784 181.172 7.59975C180.861 7.41873 180.506 7.32822 180.105 7.32822C179.821 7.32822 179.549 7.35408 179.29 7.4058C179.045 7.44459 178.78 7.52864 178.495 7.65793C178.211 7.7743 177.862 7.94885 177.448 8.18159L176.032 6.28091L176.866 0.307345H184.663V3.11957H178.457L179.29 2.03347L178.67 6.28091L177.526 5.87362C177.758 5.66675 178.049 5.48573 178.398 5.33057C178.76 5.16248 179.142 5.02672 179.543 4.92328C179.956 4.81984 180.364 4.76812 180.764 4.76812C181.631 4.76812 182.4 4.96854 183.072 5.36936C183.745 5.75725 184.275 6.30031 184.663 6.99851C185.064 7.68379 185.264 8.47898 185.264 9.38406C185.264 10.2762 185.038 11.0843 184.585 11.8084C184.146 12.5195 183.544 13.0884 182.782 13.5151C182.019 13.9289 181.159 14.1358 180.202 14.1358Z" fill="white"/>
<rect x="20.0688" y="143.517" width="55.976" height="19.261" rx="2.0715" transform="rotate(90 20.0688 143.517)" stroke="white" stroke-width="1.61622"/>
<rect x="53.1841" y="123.361" width="76.1333" height="19.261" rx="2.0715" transform="rotate(90 53.1841 123.361)" stroke="white" stroke-width="1.61622"/>
<rect x="89.8989" y="105.363" width="94.1309" height="19.261" rx="2.0715" transform="rotate(90 89.8989 105.363)" stroke="white" stroke-width="1.61622"/>
<rect x="128.054" y="90.2456" width="109.249" height="19.261" rx="2.0715" transform="rotate(90 128.054 90.2456)" stroke="white" stroke-width="1.61622"/>
<rect x="165.489" y="72.9663" width="126.526" height="19.261" rx="2.0715" transform="rotate(90 165.489 72.9663)" stroke="white" stroke-width="1.61622"/>
<rect x="204.452" y="59.2012" width="141.101" height="20.8772" rx="2.87961" transform="rotate(90 204.452 59.2012)" fill="#F59E0B"/>
<path d="M11.1785 112.82C10.5902 112.82 10.1098 112.342 10.1471 111.755C10.2641 109.918 10.6831 108.109 11.3897 106.403C12.2324 104.369 13.4675 102.52 15.0246 100.963C16.5816 99.406 18.4301 98.1709 20.4645 97.3282C22.4989 96.4855 24.6794 96.0518 26.8814 96.0518C29.0834 96.0518 31.2638 96.4855 33.2982 97.3282C35.3326 98.1709 37.1811 99.406 38.7382 100.963C40.2952 102.52 41.5304 104.369 42.373 106.403C43.0796 108.109 43.4987 109.918 43.6156 111.755C43.6529 112.342 43.1725 112.82 42.5843 112.82V112.82C41.996 112.82 41.5232 112.342 41.4804 111.756C41.3669 110.198 41.0045 108.666 40.4049 107.218C39.6693 105.442 38.5911 103.829 37.2318 102.469C35.8726 101.11 34.2589 100.032 32.483 99.2963C30.7071 98.5607 28.8036 98.1821 26.8814 98.1821C24.9591 98.1821 23.0557 98.5607 21.2797 99.2963C19.5038 100.032 17.8901 101.11 16.5309 102.469C15.1717 103.829 14.0934 105.442 13.3578 107.218C12.7583 108.666 12.3959 110.198 12.2823 111.756C12.2396 112.342 11.7667 112.82 11.1785 112.82V112.82Z" fill="#F59E0B"/>
<rect x="49.3877" y="115.266" width="9.61964" height="2.16442" rx="1.08221" transform="rotate(135 49.3877 115.266)" fill="#F59E0B"/>
<rect x="43.6787" y="110.99" width="9.61964" height="2.16442" rx="1.08221" transform="rotate(90 43.6787 110.99)" fill="#F59E0B"/>
<rect x="12.2461" y="110.99" width="34.1458" height="2.13411" rx="1.06706" transform="rotate(90 12.2461 110.99)" fill="#F59E0B"/>
<rect x="37.252" y="113.734" width="9.61964" height="2.16442" rx="1.08221" transform="rotate(45 37.252 113.734)" fill="#F59E0B"/>
<path d="M48.3708 90.8706C47.7826 90.8706 47.3022 90.3933 47.3395 89.8062C47.4564 87.9683 47.8755 86.1597 48.5821 84.4538C49.4248 82.4194 50.6599 80.5709 52.217 79.0138C53.774 77.4568 55.6225 76.2216 57.6569 75.379C59.6913 74.5363 61.8717 74.1026 64.0738 74.1026C66.2758 74.1026 68.4562 74.5363 70.4906 75.379C72.525 76.2216 74.3735 77.4568 75.9306 79.0138C77.4876 80.5709 78.7227 82.4194 79.5654 84.4538C80.272 86.1597 80.6911 87.9683 80.808 89.8062C80.8453 90.3933 80.3649 90.8706 79.7767 90.8706V90.8706C79.1884 90.8706 78.7156 90.3931 78.6728 89.8064C78.5592 88.2485 78.1968 86.7164 77.5973 85.269C76.8617 83.4931 75.7835 81.8794 74.4242 80.5202C73.065 79.1609 71.4513 78.0827 69.6754 77.3471C67.8995 76.6115 65.996 76.2328 64.0738 76.2328C62.1515 76.2328 60.2481 76.6115 58.4721 77.3471C56.6962 78.0827 55.0825 79.1609 53.7233 80.5202C52.364 81.8794 51.2858 83.4931 50.5502 85.269C49.9507 86.7164 49.5883 88.2485 49.4747 89.8064C49.4319 90.3931 48.9591 90.8706 48.3708 90.8706V90.8706Z" fill="#F59E0B"/>
<rect x="86.5811" y="93.3145" width="9.61964" height="2.16442" rx="1.08221" transform="rotate(135 86.5811 93.3145)" fill="#F59E0B"/>
<rect x="80.8721" y="89.041" width="9.61964" height="2.16442" rx="1.08221" transform="rotate(90 80.8721 89.041)" fill="#F59E0B"/>
<rect x="49.4404" y="89.041" width="9.45108" height="2.13411" rx="1.06706" transform="rotate(90 49.4404 89.041)" fill="#F59E0B"/>
<rect x="74.4453" y="91.7852" width="9.61964" height="2.16442" rx="1.08221" transform="rotate(45 74.4453 91.7852)" fill="#F59E0B"/>
<path d="M86.1755 75.0171C85.5873 75.0171 85.1069 74.5398 85.1442 73.9527C85.2611 72.1148 85.6802 70.3062 86.3868 68.6003C87.2295 66.5659 88.4646 64.7174 90.0216 63.1603C91.5787 61.6033 93.4272 60.3681 95.4616 59.5255C97.496 58.6828 99.6764 58.2491 101.878 58.2491C104.08 58.2491 106.261 58.6828 108.295 59.5255C110.33 60.3681 112.178 61.6033 113.735 63.1603C115.292 64.7174 116.527 66.5659 117.37 68.6003C118.077 70.3062 118.496 72.1148 118.613 73.9527C118.65 74.5398 118.17 75.0171 117.581 75.0171V75.0171C116.993 75.0171 116.52 74.5396 116.477 73.9529C116.364 72.395 116.002 70.8629 115.402 69.4155C114.666 67.6395 113.588 66.0259 112.229 64.6666C110.87 63.3074 109.256 62.2292 107.48 61.4936C105.704 60.7579 103.801 60.3793 101.878 60.3793C99.9562 60.3793 98.0527 60.7579 96.2768 61.4936C94.5009 62.2292 92.8872 63.3074 91.528 64.6666C90.1687 66.0259 89.0905 67.6395 88.3549 69.4155C87.7554 70.8629 87.393 72.395 87.2794 73.9529C87.2366 74.5396 86.7638 75.0171 86.1755 75.0171V75.0171Z" fill="#F59E0B"/>
<rect x="124.386" y="77.4629" width="9.61964" height="2.16442" rx="1.08221" transform="rotate(135 124.386 77.4629)" fill="#F59E0B"/>
<rect x="118.677" y="73.1875" width="9.61964" height="2.16442" rx="1.08221" transform="rotate(90 118.677 73.1875)" fill="#F59E0B"/>
<rect x="87.2451" y="73.1875" width="9.45108" height="2.13411" rx="1.06706" transform="rotate(90 87.2451 73.1875)" fill="#F59E0B"/>
<rect x="112.25" y="75.9316" width="9.61964" height="2.16442" rx="1.08221" transform="rotate(45 112.25 75.9316)" fill="#F59E0B"/>
<path d="M123.979 56.4175C123.391 56.4175 122.911 55.9401 122.948 55.3531C123.065 53.5152 123.484 51.7066 124.191 50.0006C125.033 47.9663 126.268 46.1178 127.825 44.5607C129.382 43.0036 131.231 41.7685 133.265 40.9258C135.3 40.0832 137.48 39.6495 139.682 39.6495C141.884 39.6495 144.065 40.0832 146.099 40.9259C148.133 41.7685 149.982 43.0036 151.539 44.5607C153.096 46.1178 154.331 47.9663 155.174 50.0007C155.88 51.7066 156.299 53.5152 156.416 55.3531C156.454 55.9401 155.973 56.4175 155.385 56.4175V56.4175C154.797 56.4175 154.324 55.94 154.281 55.3533C154.168 53.7954 153.805 52.2633 153.206 50.8159C152.47 49.0399 151.392 47.4263 150.033 46.067C148.673 44.7078 147.06 43.6296 145.284 42.894C143.508 42.1583 141.604 41.7797 139.682 41.7797C137.76 41.7797 135.856 42.1583 134.081 42.894C132.305 43.6296 130.691 44.7078 129.332 46.067C127.972 47.4263 126.894 49.0399 126.159 50.8159C125.559 52.2633 125.197 53.7954 125.083 55.3533C125.04 55.94 124.567 56.4175 123.979 56.4175V56.4175Z" fill="#F59E0B"/>
<rect x="162.189" y="58.8633" width="9.61964" height="2.16442" rx="1.08221" transform="rotate(135 162.189 58.8633)" fill="#F59E0B"/>
<rect x="156.48" y="54.5879" width="9.61964" height="2.16442" rx="1.08221" transform="rotate(90 156.48 54.5879)" fill="#F59E0B"/>
<rect x="125.049" y="54.5879" width="9.45108" height="2.13411" rx="1.06706" transform="rotate(90 125.049 54.5879)" fill="#F59E0B"/>
<rect x="150.054" y="57.332" width="9.61964" height="2.16442" rx="1.08221" transform="rotate(45 150.054 57.332)" fill="#F59E0B"/>
<path d="M163.308 42.6988C162.72 42.6988 162.24 42.2214 162.277 41.6343C162.394 39.7964 162.813 37.9878 163.52 36.2819C164.362 34.2475 165.597 32.399 167.154 30.842C168.712 29.2849 170.56 28.0498 172.594 27.2071C174.629 26.3644 176.809 25.9307 179.011 25.9307C181.213 25.9307 183.394 26.3644 185.428 27.2071C187.463 28.0498 189.311 29.2849 190.868 30.842C192.425 32.399 193.66 34.2475 194.503 36.2819C195.21 37.9878 195.629 39.7964 195.745 41.6343C195.783 42.2214 195.302 42.6988 194.714 42.6988V42.6988C194.126 42.6988 193.653 42.2213 193.61 41.6346C193.497 40.0766 193.134 38.5445 192.535 37.0971C191.799 35.3212 190.721 33.7075 189.362 32.3483C188.002 30.989 186.389 29.9108 184.613 29.1752C182.837 28.4396 180.934 28.061 179.011 28.061C177.089 28.061 175.186 28.4396 173.41 29.1752C171.634 29.9108 170.02 30.989 168.661 32.3483C167.302 33.7075 166.223 35.3212 165.488 37.0971C164.888 38.5445 164.526 40.0766 164.412 41.6345C164.369 42.2212 163.897 42.6988 163.308 42.6988V42.6988Z" fill="#F59E0B"/>
<rect x="201.519" y="45.1445" width="9.61964" height="2.16442" rx="1.08221" transform="rotate(135 201.519 45.1445)" fill="#F59E0B"/>
<rect x="195.81" y="40.8691" width="9.61964" height="2.16442" rx="1.08221" transform="rotate(90 195.81 40.8691)" fill="#F59E0B"/>
<rect x="164.378" y="40.8691" width="9.45108" height="2.13411" rx="1.06706" transform="rotate(90 164.378 40.8691)" fill="#F59E0B"/>
<rect x="189.383" y="43.6133" width="9.61964" height="2.16442" rx="1.08221" transform="rotate(45 189.383 43.6133)" fill="#F59E0B"/>
</svg>
