<svg width="183" height="221" viewBox="0 0 183 221" fill="none" xmlns="http://www.w3.org/2000/svg">
<rect x="1.70948" y="173.035" width="179.401" height="20.2028" rx="10.1014" stroke="white" stroke-width="1.61622"/>
<rect x="0.901367" y="172.227" width="65.4571" height="21.819" rx="10.9095" fill="#F59E0B"/>
<g filter="url(#filter0_ddd_830_20)">
<circle cx="60.4031" cy="183.241" r="12.6317" fill="white"/>
</g>
<g filter="url(#filter1_f_830_20)">
<circle cx="60.4023" cy="183.241" r="10.8271" fill="white"/>
</g>
<path d="M117.255 108.693V140.247" stroke="white" stroke-width="1.11696" stroke-linecap="round" stroke-linejoin="round"/>
<path d="M163.608 18.7781H139.314V3.69922H179.246V44.7473H163.608V18.7781Z" stroke="white" stroke-width="1.11696" stroke-linecap="round" stroke-linejoin="round"/>
<path d="M111.391 107.576H124.515V141.643" stroke="white" stroke-width="1.11696" stroke-linecap="round" stroke-linejoin="round"/>
<path d="M124.794 120.699H159.978" stroke="white" stroke-width="1.11696" stroke-linecap="round" stroke-linejoin="round"/>
<path d="M181.759 46.7014V0.90625H3.3252V125.447H32.0868V141.922H162.212V93.3343H181.759V72.3914" stroke="white" stroke-width="1.11696" stroke-linecap="round" stroke-linejoin="round"/>
<path d="M32.3662 125.168V2.02344" stroke="white" stroke-width="1.11696" stroke-linecap="round" stroke-linejoin="round"/>
<path d="M32.9248 71.832H91.2857" stroke="white" stroke-width="1.11696" stroke-linecap="round" stroke-linejoin="round"/>
<path d="M119.21 19.3359L138.198 19.3359" stroke="white" stroke-width="1.11696" stroke-linecap="round" stroke-linejoin="round"/>
<path d="M133.171 2.02344L133.171 18.7778" stroke="white" stroke-width="1.11696" stroke-linecap="round" stroke-linejoin="round"/>
<path d="M143.782 72.3906L143.782 86.911" stroke="white" stroke-width="1.11696" stroke-linecap="round" stroke-linejoin="round"/>
<path d="M124.794 72.3906L124.794 86.911" stroke="white" stroke-width="1.11696" stroke-linecap="round" stroke-linejoin="round"/>
<path d="M160.537 86.9121H144.341" stroke="white" stroke-width="1.11696" stroke-linecap="round" stroke-linejoin="round"/>
<path d="M124.236 86.9121H110.274" stroke="white" stroke-width="1.11696" stroke-linecap="round" stroke-linejoin="round"/>
<path d="M111.391 71.5527H161.933V94.7296" stroke="white" stroke-width="1.11696" stroke-linecap="round" stroke-linejoin="round"/>
<rect x="164.446" y="74.6268" width="12.845" height="13.4035" stroke="white" stroke-width="1.11696"/>
<rect x="97.4286" y="126.006" width="9.49412" height="10.0526" stroke="white" stroke-width="1.11696"/>
<path d="M48.2821 92.497C48.2821 90.0295 50.2824 88.0292 52.7499 88.0292H89.051C91.5185 88.0292 93.5188 90.0295 93.5188 92.497V137.175C93.5188 137.484 93.2688 137.734 92.9603 137.734H48.8406C48.5321 137.734 48.2821 137.484 48.2821 137.175V92.497Z" stroke="white" stroke-width="1.11696"/>
<rect x="36.5546" y="126.006" width="9.49412" height="10.0526" stroke="white" stroke-width="1.11696"/>
<rect x="153.835" y="107.017" width="5.0263" height="11.1696" rx="0.558478" stroke="white" stroke-width="1.11696"/>
<mask id="path-24-inside-1_830_20" fill="white">
<path d="M142.106 112.602C142.106 109.827 144.357 107.576 147.133 107.576H153.276C153.584 107.576 153.834 107.826 153.834 108.135V117.07C153.834 117.379 153.584 117.629 153.276 117.629H147.133C144.357 117.629 142.106 115.378 142.106 112.602Z"/>
</mask>
<path d="M142.106 112.602C142.106 109.827 144.357 107.576 147.133 107.576H153.276C153.584 107.576 153.834 107.826 153.834 108.135V117.07C153.834 117.379 153.584 117.629 153.276 117.629H147.133C144.357 117.629 142.106 115.378 142.106 112.602Z" stroke="white" stroke-width="2.23391" mask="url(#path-24-inside-1_830_20)"/>
<rect x="147.691" y="88.5878" width="11.1696" height="15.6374" stroke="white" stroke-width="1.11696"/>
<rect x="127.587" y="74.0663" width="12.845" height="12.845" stroke="white" stroke-width="1.11696"/>
<rect x="165.005" y="25.4804" width="12.2865" height="8.93564" stroke="white" stroke-width="1.11696"/>
<rect x="122.002" y="21.5702" width="15.6374" height="28.4824" stroke="white" stroke-width="1.11696"/>
<rect x="140.99" y="36.6503" width="2.23391" height="12.2865" stroke="white" stroke-width="1.11696"/>
<rect x="140.99" y="21.5702" width="2.23391" height="12.2865" stroke="white" stroke-width="1.11696"/>
<rect x="146.994" y="4.67667" width="0.837716" height="4.74706" stroke="white" stroke-width="0.837716"/>
<rect x="149.227" y="4.67667" width="0.837716" height="0.837716" stroke="white" stroke-width="0.837716"/>
<rect x="144.76" y="4.67667" width="0.837716" height="0.837716" stroke="white" stroke-width="0.837716"/>
<rect x="158.442" y="95.7079" width="0.837716" height="4.74706" transform="rotate(90 158.442 95.7079)" stroke="white" stroke-width="0.837716"/>
<rect x="158.442" y="97.9423" width="0.837716" height="0.837716" transform="rotate(90 158.442 97.9423)" stroke="white" stroke-width="0.837716"/>
<rect x="158.442" y="112.462" width="0.837716" height="0.837716" transform="rotate(90 158.442 112.462)" stroke="white" stroke-width="0.837716"/>
<rect x="158.442" y="93.4735" width="0.837716" height="0.837716" transform="rotate(90 158.442 93.4735)" stroke="white" stroke-width="0.837716"/>
<rect x="158.442" y="130.333" width="0.837716" height="4.74706" transform="rotate(90 158.442 130.333)" stroke="white" stroke-width="0.837716"/>
<rect x="158.442" y="132.567" width="0.837716" height="0.837716" transform="rotate(90 158.442 132.567)" stroke="white" stroke-width="0.837716"/>
<rect x="158.442" y="128.099" width="0.837716" height="0.837716" transform="rotate(90 158.442 128.099)" stroke="white" stroke-width="0.837716"/>
<path d="M140.71 39.4414H138.477" stroke="white" stroke-width="1.11696" stroke-linecap="round" stroke-linejoin="round"/>
<path d="M140.71 24.3613H138.477" stroke="white" stroke-width="1.11696" stroke-linecap="round" stroke-linejoin="round"/>
<path d="M140.71 46.1426H138.477" stroke="white" stroke-width="1.11696" stroke-linecap="round" stroke-linejoin="round"/>
<path d="M140.71 31.0645H138.477" stroke="white" stroke-width="1.11696" stroke-linecap="round" stroke-linejoin="round"/>
<rect x="-0.558478" y="0.558478" width="2.23391" height="12.2865" transform="matrix(-1 0 0 1 118.093 36.0918)" stroke="white" stroke-width="1.11696"/>
<rect x="-0.558478" y="0.558478" width="2.23391" height="12.2865" transform="matrix(-1 0 0 1 118.093 21.0117)" stroke="white" stroke-width="1.11696"/>
<path d="M118.93 39.4414H121.164" stroke="white" stroke-width="1.11696" stroke-linecap="round" stroke-linejoin="round"/>
<path d="M118.93 24.3613H121.164" stroke="white" stroke-width="1.11696" stroke-linecap="round" stroke-linejoin="round"/>
<path d="M118.93 46.1426H121.164" stroke="white" stroke-width="1.11696" stroke-linecap="round" stroke-linejoin="round"/>
<path d="M118.93 31.0645H121.164" stroke="white" stroke-width="1.11696" stroke-linecap="round" stroke-linejoin="round"/>
<rect x="49.9579" y="12.0761" width="12.845" height="10.6111" rx="2.23391" stroke="white" stroke-width="1.11696"/>
<rect x="64.4784" y="12.0761" width="12.845" height="10.6111" rx="2.23391" stroke="white" stroke-width="1.11696"/>
<rect x="142.107" y="8.1659" width="10.6111" height="8.37716" rx="2.23391" stroke="white" stroke-width="1.11696"/>
<path d="M153.835 7.88672H162.212" stroke="white" stroke-width="1.11696" stroke-linecap="round" stroke-linejoin="round"/>
<path d="M153.835 9.28516H162.212" stroke="white" stroke-width="1.11696" stroke-linecap="round" stroke-linejoin="round"/>
<path d="M153.835 10.959H162.212" stroke="white" stroke-width="1.11696" stroke-linecap="round" stroke-linejoin="round"/>
<path d="M153.835 12.6348H162.212" stroke="white" stroke-width="1.11696" stroke-linecap="round" stroke-linejoin="round"/>
<path d="M153.835 14.3105H162.212" stroke="white" stroke-width="1.11696" stroke-linecap="round" stroke-linejoin="round"/>
<path d="M153.835 15.9863H162.212" stroke="white" stroke-width="1.11696" stroke-linecap="round" stroke-linejoin="round"/>
<rect x="78.9989" y="12.0761" width="12.845" height="10.6111" rx="2.23391" stroke="white" stroke-width="1.11696"/>
<rect x="49.9579" y="126.006" width="20.1052" height="10.6111" rx="2.23391" stroke="white" stroke-width="1.11696"/>
<rect x="71.7391" y="126.006" width="20.1052" height="10.6111" rx="2.23391" stroke="white" stroke-width="1.11696"/>
<rect x="64.4784" y="8.1659" width="12.845" height="2.23391" rx="1.11696" stroke="white" stroke-width="1.11696"/>
<rect x="49.9579" y="8.1659" width="12.845" height="2.23391" rx="1.11696" stroke="white" stroke-width="1.11696"/>
<rect x="78.9989" y="8.1659" width="12.845" height="2.23391" rx="1.11696" stroke="white" stroke-width="1.11696"/>
<rect x="76.7655" y="63.455" width="7.26021" height="2.23391" rx="1.11696" stroke="white" stroke-width="1.11696"/>
<rect x="127.587" y="123.771" width="29.0408" height="12.845" rx="2.23391" stroke="white" stroke-width="1.11696"/>
<rect x="56.66" y="74.0663" width="29.0408" height="1.67543" rx="0.837716" stroke="white" stroke-width="1.11696"/>
<rect x="54.4266" y="63.455" width="7.26021" height="2.23391" rx="1.11696" stroke="white" stroke-width="1.11696"/>
<rect x="16.4501" y="63.455" width="7.26021" height="2.23391" rx="1.11696" stroke="white" stroke-width="1.11696"/>
<rect x="0.558478" y="-0.558478" width="7.26021" height="2.23391" rx="1.11696" transform="matrix(1 0 0 -1 15.8916 23.2444)" stroke="white" stroke-width="1.11696"/>
<path d="M52.1922 58.9876H51.0752V69.5987H65.0371V58.9876H63.9202M52.1922 58.9876H53.3091V67.0855H63.0825V58.9876H63.9202M52.1922 58.9876V57.3122C52.1922 56.3868 52.9423 55.6367 53.8676 55.6367H62.2447C63.1701 55.6367 63.9202 56.3868 63.9202 57.3122V58.9876" stroke="white" stroke-width="1.11696" stroke-linecap="round" stroke-linejoin="round"/>
<path d="M14.2156 58.9876H13.0986V69.5987H27.0606V58.9876H25.9436M14.2156 58.9876H15.3325V67.0855H25.1059V58.9876H25.9436M14.2156 58.9876V57.3122C14.2156 56.3868 14.9657 55.6367 15.891 55.6367H24.2682C25.1935 55.6367 25.9436 56.3868 25.9436 57.3122V58.9876" stroke="white" stroke-width="1.11696" stroke-linecap="round" stroke-linejoin="round"/>
<path d="M74.5312 58.9888H73.4142V69.5999H87.3762V58.9888H86.2592M74.5312 58.9888H75.6481V67.0867H85.4215V58.9888H86.2592M74.5312 58.9888V57.3134C74.5312 56.388 75.2813 55.6379 76.2066 55.6379H84.5838C85.5091 55.6379 86.2592 56.388 86.2592 57.3134V58.9888M48.562 18.4992V7.05037H92.9609V18.4992H95.4741V5.0957H46.0488V18.4992H48.562ZM56.6599 27.9933H78.7198V46.9815H56.6599V27.9933ZM58.6146 34.9743L62.2447 33.5781L64.7578 40.0006L61.1277 41.676L58.6146 34.9743Z" stroke="white" stroke-width="1.11696" stroke-linecap="round" stroke-linejoin="round"/>
<path d="M14.2156 28.2722H13.0986V17.6611H27.0606V28.2722H25.9436M14.2156 28.2722H15.3325V20.1743H25.1059V28.2722H25.9436M14.2156 28.2722V29.9476C14.2156 30.8729 14.9657 31.623 15.891 31.623H24.2682C25.1935 31.623 25.9436 30.8729 25.9436 29.9476V28.2722" stroke="white" stroke-width="1.11696" stroke-linecap="round" stroke-linejoin="round"/>
<circle cx="19.8004" cy="43.9088" r="6.14325" stroke="white" stroke-width="1.11696"/>
<circle cx="167.518" cy="28.5523" r="1.39619" stroke="white" stroke-width="1.11696"/>
<circle cx="166.401" cy="33.0194" r="0.558478" stroke="white" stroke-width="0.558478"/>
<circle cx="168.635" cy="33.0194" r="0.558478" stroke="white" stroke-width="0.558478"/>
<circle cx="173.661" cy="28.5522" r="1.95467" stroke="white" stroke-width="1.11696"/>
<circle cx="101.059" cy="132.986" r="1.95467" stroke="white" stroke-width="1.11696"/>
<circle cx="41.3012" cy="132.986" r="1.95467" stroke="white" stroke-width="1.11696"/>
<circle cx="101.059" cy="132.986" r="0.837716" stroke="white" stroke-width="1.11696"/>
<circle cx="41.3024" cy="132.986" r="0.837716" stroke="white" stroke-width="1.11696"/>
<path d="M156.627 95.8464C156.627 97.453 156.212 98.8813 155.57 99.8905C154.923 100.906 154.099 101.431 153.277 101.431C152.454 101.431 151.63 100.906 150.983 99.8905C150.341 98.8813 149.926 97.453 149.926 95.8464C149.926 94.2398 150.341 92.8115 150.983 91.8023C151.63 90.7865 152.454 90.2616 153.277 90.2616C154.099 90.2616 154.923 90.7865 155.57 91.8023C156.212 92.8115 156.627 94.2398 156.627 95.8464Z" stroke="white" stroke-width="1.11696"/>
<g filter="url(#filter2_b_830_20)">
<rect x="3.3252" y="0.90625" width="50.9111" height="54.9516" fill="#F59E0B" fill-opacity="0.5"/>
<rect x="3.72925" y="1.31031" width="50.103" height="54.1435" stroke="white" stroke-width="0.808112"/>
</g>
<g filter="url(#filter3_b_830_20)">
<rect x="3.3252" y="55.0508" width="26.6677" height="32.3245" fill="#F59E0B" fill-opacity="0.5"/>
<rect x="3.72925" y="55.4548" width="25.8596" height="31.5164" stroke="white" stroke-width="0.808112"/>
</g>
<g filter="url(#filter4_b_830_20)">
<rect x="29.1846" y="55.0508" width="25.0515" height="32.3245" fill="#F59E0B" fill-opacity="0.5"/>
<rect x="29.5886" y="55.4548" width="24.2434" height="31.5164" stroke="white" stroke-width="0.808112"/>
</g>
<g filter="url(#filter5_b_830_20)">
<rect x="53.4277" y="0.90625" width="24.2434" height="40.4056" fill="#F59E0B" fill-opacity="0.5"/>
<rect x="53.8318" y="1.31031" width="23.4353" height="39.5975" stroke="white" stroke-width="0.808112"/>
</g>
<g filter="url(#filter6_b_830_20)">
<rect x="53.4277" y="63.1309" width="24.2434" height="24.2434" fill="#F59E0B" fill-opacity="0.5"/>
<rect x="53.8318" y="63.5349" width="23.4353" height="23.4353" stroke="white" stroke-width="0.808112"/>
</g>
<g filter="url(#filter7_b_830_20)">
<rect x="53.4277" y="39.6953" width="24.2434" height="24.2434" fill="#F59E0B" fill-opacity="0.5"/>
<rect x="53.8318" y="40.0994" width="23.4353" height="23.4353" stroke="white" stroke-width="0.808112"/>
</g>
<g filter="url(#filter8_b_830_20)">
<rect x="76.8633" y="0.90625" width="24.2434" height="24.2434" fill="#F59E0B" fill-opacity="0.5"/>
<rect x="77.2673" y="1.31031" width="23.4353" height="23.4353" stroke="white" stroke-width="0.808112"/>
</g>
<g filter="url(#filter9_b_830_20)">
<rect x="3.3252" y="86.5664" width="24.2434" height="24.2434" fill="#F59E0B" fill-opacity="0.5"/>
<rect x="3.72925" y="86.9705" width="23.4353" height="23.4353" stroke="white" stroke-width="0.808112"/>
</g>
<defs>
<filter id="filter0_ddd_830_20" x="23.5281" y="146.366" width="73.7504" height="73.7504" filterUnits="userSpaceOnUse" color-interpolation-filters="sRGB">
<feFlood flood-opacity="0" result="BackgroundImageFix"/>
<feColorMatrix in="SourceAlpha" type="matrix" values="0 0 0 0 0 0 0 0 0 0 0 0 0 0 0 0 0 0 127 0" result="hardAlpha"/>
<feMorphology radius="2.16543" operator="erode" in="SourceAlpha" result="effect1_dropShadow_830_20"/>
<feOffset/>
<feGaussianBlur stdDeviation="6.49628"/>
<feComposite in2="hardAlpha" operator="out"/>
<feColorMatrix type="matrix" values="0 0 0 0 0 0 0 0 0 0 0 0 0 0 0 0 0 0 0.25 0"/>
<feBlend mode="normal" in2="BackgroundImageFix" result="effect1_dropShadow_830_20"/>
<feColorMatrix in="SourceAlpha" type="matrix" values="0 0 0 0 0 0 0 0 0 0 0 0 0 0 0 0 0 0 127 0" result="hardAlpha"/>
<feOffset/>
<feGaussianBlur stdDeviation="12.1217"/>
<feComposite in2="hardAlpha" operator="out"/>
<feColorMatrix type="matrix" values="0 0 0 0 1 0 0 0 0 1 0 0 0 0 1 0 0 0 1 0"/>
<feBlend mode="normal" in2="effect1_dropShadow_830_20" result="effect2_dropShadow_830_20"/>
<feColorMatrix in="SourceAlpha" type="matrix" values="0 0 0 0 0 0 0 0 0 0 0 0 0 0 0 0 0 0 127 0" result="hardAlpha"/>
<feOffset/>
<feGaussianBlur stdDeviation="2.82839"/>
<feComposite in2="hardAlpha" operator="out"/>
<feColorMatrix type="matrix" values="0 0 0 0 1 0 0 0 0 1 0 0 0 0 1 0 0 0 1 0"/>
<feBlend mode="normal" in2="effect2_dropShadow_830_20" result="effect3_dropShadow_830_20"/>
<feBlend mode="normal" in="SourceGraphic" in2="effect3_dropShadow_830_20" result="shape"/>
</filter>
<filter id="filter1_f_830_20" x="35.8373" y="158.676" width="49.1301" height="49.1301" filterUnits="userSpaceOnUse" color-interpolation-filters="sRGB">
<feFlood flood-opacity="0" result="BackgroundImageFix"/>
<feBlend mode="normal" in="SourceGraphic" in2="BackgroundImageFix" result="shape"/>
<feGaussianBlur stdDeviation="6.86895" result="effect1_foregroundBlur_830_20"/>
</filter>
<filter id="filter2_b_830_20" x="0.092746" y="-2.3262" width="57.376" height="61.4161" filterUnits="userSpaceOnUse" color-interpolation-filters="sRGB">
<feFlood flood-opacity="0" result="BackgroundImageFix"/>
<feGaussianBlur in="BackgroundImageFix" stdDeviation="1.61622"/>
<feComposite in2="SourceAlpha" operator="in" result="effect1_backgroundBlur_830_20"/>
<feBlend mode="normal" in="SourceGraphic" in2="effect1_backgroundBlur_830_20" result="shape"/>
</filter>
<filter id="filter3_b_830_20" x="0.092746" y="51.8183" width="33.1329" height="38.7891" filterUnits="userSpaceOnUse" color-interpolation-filters="sRGB">
<feFlood flood-opacity="0" result="BackgroundImageFix"/>
<feGaussianBlur in="BackgroundImageFix" stdDeviation="1.61622"/>
<feComposite in2="SourceAlpha" operator="in" result="effect1_backgroundBlur_830_20"/>
<feBlend mode="normal" in="SourceGraphic" in2="effect1_backgroundBlur_830_20" result="shape"/>
</filter>
<filter id="filter4_b_830_20" x="25.9521" y="51.8183" width="31.5167" height="38.7891" filterUnits="userSpaceOnUse" color-interpolation-filters="sRGB">
<feFlood flood-opacity="0" result="BackgroundImageFix"/>
<feGaussianBlur in="BackgroundImageFix" stdDeviation="1.61622"/>
<feComposite in2="SourceAlpha" operator="in" result="effect1_backgroundBlur_830_20"/>
<feBlend mode="normal" in="SourceGraphic" in2="effect1_backgroundBlur_830_20" result="shape"/>
</filter>
<filter id="filter5_b_830_20" x="50.1953" y="-2.3262" width="30.7081" height="46.8711" filterUnits="userSpaceOnUse" color-interpolation-filters="sRGB">
<feFlood flood-opacity="0" result="BackgroundImageFix"/>
<feGaussianBlur in="BackgroundImageFix" stdDeviation="1.61622"/>
<feComposite in2="SourceAlpha" operator="in" result="effect1_backgroundBlur_830_20"/>
<feBlend mode="normal" in="SourceGraphic" in2="effect1_backgroundBlur_830_20" result="shape"/>
</filter>
<filter id="filter6_b_830_20" x="50.1953" y="59.8984" width="30.7081" height="30.709" filterUnits="userSpaceOnUse" color-interpolation-filters="sRGB">
<feFlood flood-opacity="0" result="BackgroundImageFix"/>
<feGaussianBlur in="BackgroundImageFix" stdDeviation="1.61622"/>
<feComposite in2="SourceAlpha" operator="in" result="effect1_backgroundBlur_830_20"/>
<feBlend mode="normal" in="SourceGraphic" in2="effect1_backgroundBlur_830_20" result="shape"/>
</filter>
<filter id="filter7_b_830_20" x="50.1953" y="36.4629" width="30.7081" height="30.709" filterUnits="userSpaceOnUse" color-interpolation-filters="sRGB">
<feFlood flood-opacity="0" result="BackgroundImageFix"/>
<feGaussianBlur in="BackgroundImageFix" stdDeviation="1.61622"/>
<feComposite in2="SourceAlpha" operator="in" result="effect1_backgroundBlur_830_20"/>
<feBlend mode="normal" in="SourceGraphic" in2="effect1_backgroundBlur_830_20" result="shape"/>
</filter>
<filter id="filter8_b_830_20" x="73.6308" y="-2.3262" width="30.7081" height="30.709" filterUnits="userSpaceOnUse" color-interpolation-filters="sRGB">
<feFlood flood-opacity="0" result="BackgroundImageFix"/>
<feGaussianBlur in="BackgroundImageFix" stdDeviation="1.61622"/>
<feComposite in2="SourceAlpha" operator="in" result="effect1_backgroundBlur_830_20"/>
<feBlend mode="normal" in="SourceGraphic" in2="effect1_backgroundBlur_830_20" result="shape"/>
</filter>
<filter id="filter9_b_830_20" x="0.092746" y="83.334" width="30.7081" height="30.709" filterUnits="userSpaceOnUse" color-interpolation-filters="sRGB">
<feFlood flood-opacity="0" result="BackgroundImageFix"/>
<feGaussianBlur in="BackgroundImageFix" stdDeviation="1.61622"/>
<feComposite in2="SourceAlpha" operator="in" result="effect1_backgroundBlur_830_20"/>
<feBlend mode="normal" in="SourceGraphic" in2="effect1_backgroundBlur_830_20" result="shape"/>
</filter>
</defs>
</svg>
