<svg width="208" height="221" viewBox="0 0 208 221" fill="none" xmlns="http://www.w3.org/2000/svg">
<rect x="1.146" y="173.035" width="179.401" height="20.2028" rx="10.1014" stroke="white" stroke-width="1.61622"/>
<rect x="0.337891" y="172.227" width="175.36" height="21.819" rx="10.9095" fill="#F59E0B"/>
<g filter="url(#filter0_ddd_830_21)">
<circle cx="170.552" cy="183.241" r="12.6317" fill="white"/>
</g>
<g filter="url(#filter1_f_830_21)">
<circle cx="170.551" cy="183.241" r="10.8271" fill="white"/>
</g>
<path d="M116.692 108.693V140.247" stroke="white" stroke-width="1.11696" stroke-linecap="round" stroke-linejoin="round"/>
<path d="M163.046 18.7781H138.752V3.69922H178.683V44.7473H163.046V18.7781Z" stroke="white" stroke-width="1.11696" stroke-linecap="round" stroke-linejoin="round"/>
<path d="M110.828 107.576H123.952V141.643" stroke="white" stroke-width="1.11696" stroke-linecap="round" stroke-linejoin="round"/>
<path d="M124.231 120.699H159.416" stroke="white" stroke-width="1.11696" stroke-linecap="round" stroke-linejoin="round"/>
<path d="M181.196 46.7014V0.90625H2.7627V125.447H31.5243V141.922H161.65V93.3343H181.196V72.3914" stroke="white" stroke-width="1.11696" stroke-linecap="round" stroke-linejoin="round"/>
<path d="M31.8037 125.168V2.02344" stroke="white" stroke-width="1.11696" stroke-linecap="round" stroke-linejoin="round"/>
<path d="M32.3623 71.832H90.7232" stroke="white" stroke-width="1.11696" stroke-linecap="round" stroke-linejoin="round"/>
<path d="M118.647 19.3359L137.636 19.3359" stroke="white" stroke-width="1.11696" stroke-linecap="round" stroke-linejoin="round"/>
<path d="M132.608 2.02344L132.608 18.7778" stroke="white" stroke-width="1.11696" stroke-linecap="round" stroke-linejoin="round"/>
<path d="M143.22 72.3906L143.22 86.911" stroke="white" stroke-width="1.11696" stroke-linecap="round" stroke-linejoin="round"/>
<path d="M124.231 72.3906L124.231 86.911" stroke="white" stroke-width="1.11696" stroke-linecap="round" stroke-linejoin="round"/>
<path d="M159.975 86.9121H143.779" stroke="white" stroke-width="1.11696" stroke-linecap="round" stroke-linejoin="round"/>
<path d="M123.674 86.9121H109.712" stroke="white" stroke-width="1.11696" stroke-linecap="round" stroke-linejoin="round"/>
<path d="M110.828 71.5527H161.37V94.7296" stroke="white" stroke-width="1.11696" stroke-linecap="round" stroke-linejoin="round"/>
<rect x="163.884" y="74.6249" width="12.845" height="13.4035" stroke="white" stroke-width="1.11696"/>
<rect x="96.8661" y="126.006" width="9.49412" height="10.0526" stroke="white" stroke-width="1.11696"/>
<path d="M47.7196 92.497C47.7196 90.0295 49.7199 88.0292 52.1874 88.0292H88.4885C90.956 88.0292 92.9563 90.0295 92.9563 92.497V137.175C92.9563 137.484 92.7063 137.734 92.3978 137.734H48.2781C47.9696 137.734 47.7196 137.484 47.7196 137.175V92.497Z" stroke="white" stroke-width="1.11696"/>
<rect x="35.9921" y="126.006" width="9.49412" height="10.0526" stroke="white" stroke-width="1.11696"/>
<rect x="153.272" y="107.016" width="5.0263" height="11.1696" rx="0.558478" stroke="white" stroke-width="1.11696"/>
<mask id="path-24-inside-1_830_21" fill="white">
<path d="M141.544 112.602C141.544 109.827 143.794 107.576 146.57 107.576H152.713C153.022 107.576 153.272 107.826 153.272 108.135V117.07C153.272 117.379 153.022 117.629 152.713 117.629H146.57C143.794 117.629 141.544 115.378 141.544 112.602Z"/>
</mask>
<path d="M141.544 112.602C141.544 109.827 143.794 107.576 146.57 107.576H152.713C153.022 107.576 153.272 107.826 153.272 108.135V117.07C153.272 117.379 153.022 117.629 152.713 117.629H146.57C143.794 117.629 141.544 115.378 141.544 112.602Z" stroke="white" stroke-width="2.23391" mask="url(#path-24-inside-1_830_21)"/>
<rect x="147.129" y="88.5878" width="11.1696" height="15.6374" stroke="white" stroke-width="1.11696"/>
<rect x="127.024" y="74.0663" width="12.845" height="12.845" stroke="white" stroke-width="1.11696"/>
<rect x="164.441" y="25.4784" width="12.2865" height="8.93564" stroke="white" stroke-width="1.11696"/>
<rect x="121.439" y="21.5702" width="15.6374" height="28.4824" stroke="white" stroke-width="1.11696"/>
<rect x="140.428" y="36.6483" width="2.23391" height="12.2865" stroke="white" stroke-width="1.11696"/>
<rect x="140.428" y="21.5702" width="2.23391" height="12.2865" stroke="white" stroke-width="1.11696"/>
<rect x="146.432" y="4.67667" width="0.837716" height="4.74706" stroke="white" stroke-width="0.837716"/>
<rect x="148.665" y="4.67667" width="0.837716" height="0.837716" stroke="white" stroke-width="0.837716"/>
<rect x="144.197" y="4.67667" width="0.837716" height="0.837716" stroke="white" stroke-width="0.837716"/>
<rect x="157.88" y="95.7079" width="0.837716" height="4.74706" transform="rotate(90 157.88 95.7079)" stroke="white" stroke-width="0.837716"/>
<rect x="157.88" y="97.9423" width="0.837716" height="0.837716" transform="rotate(90 157.88 97.9423)" stroke="white" stroke-width="0.837716"/>
<rect x="157.88" y="112.462" width="0.837716" height="0.837716" transform="rotate(90 157.88 112.462)" stroke="white" stroke-width="0.837716"/>
<rect x="157.88" y="93.4735" width="0.837716" height="0.837716" transform="rotate(90 157.88 93.4735)" stroke="white" stroke-width="0.837716"/>
<rect x="157.88" y="130.333" width="0.837716" height="4.74706" transform="rotate(90 157.88 130.333)" stroke="white" stroke-width="0.837716"/>
<rect x="157.88" y="132.567" width="0.837716" height="0.837716" transform="rotate(90 157.88 132.567)" stroke="white" stroke-width="0.837716"/>
<rect x="157.88" y="128.099" width="0.837716" height="0.837716" transform="rotate(90 157.88 128.099)" stroke="white" stroke-width="0.837716"/>
<path d="M140.148 39.4414H137.914" stroke="white" stroke-width="1.11696" stroke-linecap="round" stroke-linejoin="round"/>
<path d="M140.148 24.3613H137.914" stroke="white" stroke-width="1.11696" stroke-linecap="round" stroke-linejoin="round"/>
<path d="M140.148 46.1426H137.914" stroke="white" stroke-width="1.11696" stroke-linecap="round" stroke-linejoin="round"/>
<path d="M140.148 31.0645H137.914" stroke="white" stroke-width="1.11696" stroke-linecap="round" stroke-linejoin="round"/>
<rect x="-0.558478" y="0.558478" width="2.23391" height="12.2865" transform="matrix(-1 0 0 1 117.531 36.0898)" stroke="white" stroke-width="1.11696"/>
<rect x="-0.558478" y="0.558478" width="2.23391" height="12.2865" transform="matrix(-1 0 0 1 117.531 21.0117)" stroke="white" stroke-width="1.11696"/>
<path d="M118.368 39.4414H120.602" stroke="white" stroke-width="1.11696" stroke-linecap="round" stroke-linejoin="round"/>
<path d="M118.368 24.3613H120.602" stroke="white" stroke-width="1.11696" stroke-linecap="round" stroke-linejoin="round"/>
<path d="M118.368 46.1426H120.602" stroke="white" stroke-width="1.11696" stroke-linecap="round" stroke-linejoin="round"/>
<path d="M118.368 31.0645H120.602" stroke="white" stroke-width="1.11696" stroke-linecap="round" stroke-linejoin="round"/>
<rect x="49.3954" y="12.0761" width="12.845" height="10.6111" rx="2.23391" stroke="white" stroke-width="1.11696"/>
<rect x="63.9159" y="12.0761" width="12.845" height="10.6111" rx="2.23391" stroke="white" stroke-width="1.11696"/>
<rect x="141.545" y="8.1659" width="10.6111" height="8.37716" rx="2.23391" stroke="white" stroke-width="1.11696"/>
<path d="M153.272 7.88672H161.65" stroke="white" stroke-width="1.11696" stroke-linecap="round" stroke-linejoin="round"/>
<path d="M153.272 9.28516H161.65" stroke="white" stroke-width="1.11696" stroke-linecap="round" stroke-linejoin="round"/>
<path d="M153.272 10.959H161.65" stroke="white" stroke-width="1.11696" stroke-linecap="round" stroke-linejoin="round"/>
<path d="M153.272 12.6348H161.65" stroke="white" stroke-width="1.11696" stroke-linecap="round" stroke-linejoin="round"/>
<path d="M153.272 14.3086H161.65" stroke="white" stroke-width="1.11696" stroke-linecap="round" stroke-linejoin="round"/>
<path d="M153.272 15.9863H161.65" stroke="white" stroke-width="1.11696" stroke-linecap="round" stroke-linejoin="round"/>
<rect x="78.4364" y="12.0761" width="12.845" height="10.6111" rx="2.23391" stroke="white" stroke-width="1.11696"/>
<rect x="49.3954" y="126.006" width="20.1052" height="10.6111" rx="2.23391" stroke="white" stroke-width="1.11696"/>
<rect x="71.1766" y="126.006" width="20.1052" height="10.6111" rx="2.23391" stroke="white" stroke-width="1.11696"/>
<rect x="63.9159" y="8.1659" width="12.845" height="2.23391" rx="1.11696" stroke="white" stroke-width="1.11696"/>
<rect x="49.3954" y="8.1659" width="12.845" height="2.23391" rx="1.11696" stroke="white" stroke-width="1.11696"/>
<rect x="78.4364" y="8.1659" width="12.845" height="2.23391" rx="1.11696" stroke="white" stroke-width="1.11696"/>
<rect x="76.203" y="63.455" width="7.26021" height="2.23391" rx="1.11696" stroke="white" stroke-width="1.11696"/>
<rect x="127.024" y="123.771" width="29.0408" height="12.845" rx="2.23391" stroke="white" stroke-width="1.11696"/>
<rect x="56.0975" y="74.0663" width="29.0408" height="1.67543" rx="0.837716" stroke="white" stroke-width="1.11696"/>
<rect x="53.8641" y="63.455" width="7.26021" height="2.23391" rx="1.11696" stroke="white" stroke-width="1.11696"/>
<rect x="15.8876" y="63.455" width="7.26021" height="2.23391" rx="1.11696" stroke="white" stroke-width="1.11696"/>
<rect x="0.558478" y="-0.558478" width="7.26021" height="2.23391" rx="1.11696" transform="matrix(1 0 0 -1 15.3291 23.2444)" stroke="white" stroke-width="1.11696"/>
<path d="M51.6297 58.9876H50.5127V69.5987H64.4746V58.9876H63.3577M51.6297 58.9876H52.7466V67.0855H62.52V58.9876H63.3577M51.6297 58.9876V57.3122C51.6297 56.3868 52.3798 55.6367 53.3051 55.6367H61.6822C62.6076 55.6367 63.3577 56.3868 63.3577 57.3122V58.9876" stroke="white" stroke-width="1.11696" stroke-linecap="round" stroke-linejoin="round"/>
<path d="M13.6531 58.9876H12.5361V69.5987H26.4981V58.9876H25.3811M13.6531 58.9876H14.77V67.0855H24.5434V58.9876H25.3811M13.6531 58.9876V57.3122C13.6531 56.3868 14.4032 55.6367 15.3285 55.6367H23.7057C24.631 55.6367 25.3811 56.3868 25.3811 57.3122V58.9876" stroke="white" stroke-width="1.11696" stroke-linecap="round" stroke-linejoin="round"/>
<path d="M73.9687 58.9888H72.8517V69.5999H86.8137V58.9888H85.6967M73.9687 58.9888H75.0856V67.0867H84.859V58.9888H85.6967M73.9687 58.9888V57.3134C73.9687 56.388 74.7188 55.6379 75.6441 55.6379H84.0213C84.9466 55.6379 85.6967 56.388 85.6967 57.3134V58.9888M47.9995 18.4992V7.05037H92.3984V18.4992H94.9116V5.0957H45.4863V18.4992H47.9995ZM56.0974 27.9933H78.1573V46.9815H56.0974V27.9933ZM58.0521 34.9743L61.6822 33.5781L64.1953 40.0006L60.5652 41.676L58.0521 34.9743Z" stroke="white" stroke-width="1.11696" stroke-linecap="round" stroke-linejoin="round"/>
<path d="M13.6531 28.2722H12.5361V17.6611H26.4981V28.2722H25.3811M13.6531 28.2722H14.77V20.1743H24.5434V28.2722H25.3811M13.6531 28.2722V29.9476C13.6531 30.8729 14.4032 31.623 15.3285 31.623H23.7057C24.631 31.623 25.3811 30.8729 25.3811 29.9476V28.2722" stroke="white" stroke-width="1.11696" stroke-linecap="round" stroke-linejoin="round"/>
<circle cx="19.2379" cy="43.9088" r="6.14325" stroke="white" stroke-width="1.11696"/>
<circle cx="166.956" cy="28.5523" r="1.39619" stroke="white" stroke-width="1.11696"/>
<circle cx="165.839" cy="33.0194" r="0.558478" stroke="white" stroke-width="0.558478"/>
<circle cx="168.072" cy="33.0194" r="0.558478" stroke="white" stroke-width="0.558478"/>
<circle cx="173.098" cy="28.5522" r="1.95467" stroke="white" stroke-width="1.11696"/>
<circle cx="100.497" cy="132.986" r="1.95467" stroke="white" stroke-width="1.11696"/>
<circle cx="40.7387" cy="132.986" r="1.95467" stroke="white" stroke-width="1.11696"/>
<circle cx="100.496" cy="132.986" r="0.837716" stroke="white" stroke-width="1.11696"/>
<circle cx="40.739" cy="132.986" r="0.837716" stroke="white" stroke-width="1.11696"/>
<path d="M156.065 95.8464C156.065 97.453 155.649 98.8813 155.007 99.8905C154.361 100.906 153.536 101.431 152.714 101.431C151.892 101.431 151.067 100.906 150.421 99.8905C149.779 98.8813 149.363 97.453 149.363 95.8464C149.363 94.2398 149.779 92.8115 150.421 91.8023C151.067 90.7865 151.892 90.2616 152.714 90.2616C153.536 90.2616 154.361 90.7865 155.007 91.8023C155.649 92.8115 156.065 94.2398 156.065 95.8464Z" stroke="white" stroke-width="1.11696"/>
<g filter="url(#filter2_b_830_21)">
<path d="M2.76172 0.90625H181.355V93.0311H161.556V141.922H31.0457V125.356H2.76172V0.90625Z" fill="#F59E0B" fill-opacity="0.5"/>
<path d="M31.0457 124.951H3.16577V1.31031H180.95V92.627H161.556H161.152V93.0311V141.518H31.4497V125.356V124.951H31.0457Z" stroke="white" stroke-width="0.808112"/>
</g>
<g filter="url(#filter3_d_830_21)">
<path d="M58.4045 76.5454V60.1084L59.51 62.5521L55.1753 64.5886L54.3025 60.1957L60.121 57.3446H63.292V76.5454H58.4045ZM54.7098 78V73.6071H67.103V78H54.7098ZM78.4046 78.2909C76.5815 78.2909 75.0299 77.8739 73.7499 77.04C72.4698 76.206 71.4904 75.0132 70.8116 73.4616C70.1328 71.8907 69.7934 70.0094 69.7934 67.8178C69.7934 65.6262 70.1328 63.7546 70.8116 62.203C71.4904 60.632 72.4698 59.4296 73.7499 58.5956C75.0299 57.7616 76.5815 57.3446 78.4046 57.3446C80.2277 57.3446 81.7793 57.7616 83.0593 58.5956C84.3394 59.4296 85.3188 60.632 85.9976 62.203C86.6765 63.7546 87.0159 65.6262 87.0159 67.8178C87.0159 70.0094 86.6765 71.8907 85.9976 73.4616C85.3188 75.0132 84.3394 76.206 83.0593 77.04C81.7793 77.8739 80.2277 78.2909 78.4046 78.2909ZM78.4046 74.0726C79.6459 74.0726 80.5962 73.5295 81.2556 72.4434C81.9345 71.3573 82.2739 69.8154 82.2739 67.8178C82.2739 65.7426 81.9345 64.1522 81.2556 63.0467C80.5962 61.9412 79.6459 61.3884 78.4046 61.3884C77.1634 61.3884 76.2033 61.9412 75.5245 63.0467C74.8457 64.1522 74.5063 65.7426 74.5063 67.8178C74.5063 69.8154 74.8457 71.3573 75.5245 72.4434C76.2033 73.5295 77.1634 74.0726 78.4046 74.0726ZM97.9508 78.2909C96.1277 78.2909 94.5762 77.8739 93.2961 77.04C92.0161 76.206 91.0366 75.0132 90.3578 73.4616C89.679 71.8907 89.3396 70.0094 89.3396 67.8178C89.3396 65.6262 89.679 63.7546 90.3578 62.203C91.0366 60.632 92.0161 59.4296 93.2961 58.5956C94.5762 57.7616 96.1277 57.3446 97.9508 57.3446C99.7739 57.3446 101.326 57.7616 102.606 58.5956C103.886 59.4296 104.865 60.632 105.544 62.203C106.223 63.7546 106.562 65.6262 106.562 67.8178C106.562 70.0094 106.223 71.8907 105.544 73.4616C104.865 75.0132 103.886 76.206 102.606 77.04C101.326 77.8739 99.7739 78.2909 97.9508 78.2909ZM97.9508 74.0726C99.1921 74.0726 100.142 73.5295 100.802 72.4434C101.481 71.3573 101.82 69.8154 101.82 67.8178C101.82 65.7426 101.481 64.1522 100.802 63.0467C100.142 61.9412 99.1921 61.3884 97.9508 61.3884C96.7096 61.3884 95.7495 61.9412 95.0707 63.0467C94.3919 64.1522 94.0525 65.7426 94.0525 67.8178C94.0525 69.8154 94.3919 71.3573 95.0707 72.4434C95.7495 73.5295 96.7096 74.0726 97.9508 74.0726ZM112.61 78L126.079 57.6356H130.443L116.828 78H112.61ZM114.006 68.4287C113.017 68.4287 112.134 68.1863 111.359 67.7014C110.583 67.1972 109.972 66.5183 109.526 65.665C109.099 64.8116 108.886 63.8322 108.886 62.7267C108.886 61.6406 109.099 60.6708 109.526 59.8175C109.972 58.9641 110.573 58.295 111.33 57.8101C112.105 57.3253 112.997 57.0828 114.006 57.0828C115.015 57.0828 115.897 57.3253 116.653 57.8101C117.41 58.295 118.001 58.9641 118.428 59.8175C118.855 60.6708 119.068 61.6503 119.068 62.7558C119.068 63.8225 118.845 64.7922 118.399 65.665C117.953 66.5183 117.352 67.1972 116.595 67.7014C115.839 68.1863 114.976 68.4287 114.006 68.4287ZM114.006 65.4031C114.316 65.4031 114.578 65.2965 114.791 65.0831C115.005 64.8698 115.17 64.5692 115.286 64.1813C115.402 63.774 115.461 63.2988 115.461 62.7558C115.461 62.2127 115.402 61.7472 115.286 61.3594C115.17 60.9521 115.005 60.6417 114.791 60.4284C114.578 60.2151 114.316 60.1084 114.006 60.1084C113.696 60.1084 113.424 60.2248 113.191 60.4575C112.959 60.6708 112.774 60.9715 112.639 61.3594C112.522 61.7472 112.464 62.2127 112.464 62.7558C112.464 63.5703 112.6 64.2201 112.871 64.7049C113.162 65.1704 113.541 65.4031 114.006 65.4031ZM129.425 78.2618C128.455 78.2618 127.573 78.0194 126.777 77.5345C126.002 77.0303 125.391 76.3515 124.945 75.4981C124.499 74.6447 124.275 73.6847 124.275 72.618C124.275 71.5125 124.489 70.533 124.916 69.6797C125.362 68.8263 125.973 68.1572 126.748 67.6723C127.524 67.1681 128.416 66.9159 129.425 66.9159C130.414 66.9159 131.287 67.1681 132.043 67.6723C132.799 68.1572 133.391 68.8263 133.818 69.6797C134.244 70.533 134.458 71.5125 134.458 72.618C134.458 73.6847 134.235 74.6447 133.789 75.4981C133.362 76.3515 132.77 77.0303 132.014 77.5345C131.258 78.0194 130.395 78.2618 129.425 78.2618ZM129.425 75.2653C129.735 75.2653 129.997 75.1587 130.21 74.9453C130.424 74.7126 130.588 74.4023 130.705 74.0144C130.821 73.6071 130.879 73.1416 130.879 72.618C130.879 71.8034 130.753 71.1537 130.501 70.6688C130.249 70.1839 129.89 69.9415 129.425 69.9415C129.114 69.9415 128.843 70.0579 128.61 70.2906C128.377 70.5039 128.193 70.8143 128.057 71.2216C127.941 71.6094 127.883 72.0749 127.883 72.618C127.883 73.4132 128.019 74.0532 128.29 74.538C128.581 75.0229 128.959 75.2653 129.425 75.2653Z" fill="white"/>
</g>
<defs>
<filter id="filter0_ddd_830_21" x="133.677" y="146.366" width="73.7504" height="73.7504" filterUnits="userSpaceOnUse" color-interpolation-filters="sRGB">
<feFlood flood-opacity="0" result="BackgroundImageFix"/>
<feColorMatrix in="SourceAlpha" type="matrix" values="0 0 0 0 0 0 0 0 0 0 0 0 0 0 0 0 0 0 127 0" result="hardAlpha"/>
<feMorphology radius="2.16543" operator="erode" in="SourceAlpha" result="effect1_dropShadow_830_21"/>
<feOffset/>
<feGaussianBlur stdDeviation="6.49628"/>
<feComposite in2="hardAlpha" operator="out"/>
<feColorMatrix type="matrix" values="0 0 0 0 0 0 0 0 0 0 0 0 0 0 0 0 0 0 0.25 0"/>
<feBlend mode="normal" in2="BackgroundImageFix" result="effect1_dropShadow_830_21"/>
<feColorMatrix in="SourceAlpha" type="matrix" values="0 0 0 0 0 0 0 0 0 0 0 0 0 0 0 0 0 0 127 0" result="hardAlpha"/>
<feOffset/>
<feGaussianBlur stdDeviation="12.1217"/>
<feComposite in2="hardAlpha" operator="out"/>
<feColorMatrix type="matrix" values="0 0 0 0 1 0 0 0 0 1 0 0 0 0 1 0 0 0 1 0"/>
<feBlend mode="normal" in2="effect1_dropShadow_830_21" result="effect2_dropShadow_830_21"/>
<feColorMatrix in="SourceAlpha" type="matrix" values="0 0 0 0 0 0 0 0 0 0 0 0 0 0 0 0 0 0 127 0" result="hardAlpha"/>
<feOffset/>
<feGaussianBlur stdDeviation="2.82839"/>
<feComposite in2="hardAlpha" operator="out"/>
<feColorMatrix type="matrix" values="0 0 0 0 1 0 0 0 0 1 0 0 0 0 1 0 0 0 1 0"/>
<feBlend mode="normal" in2="effect2_dropShadow_830_21" result="effect3_dropShadow_830_21"/>
<feBlend mode="normal" in="SourceGraphic" in2="effect3_dropShadow_830_21" result="shape"/>
</filter>
<filter id="filter1_f_830_21" x="145.986" y="158.676" width="49.1301" height="49.1301" filterUnits="userSpaceOnUse" color-interpolation-filters="sRGB">
<feFlood flood-opacity="0" result="BackgroundImageFix"/>
<feBlend mode="normal" in="SourceGraphic" in2="BackgroundImageFix" result="shape"/>
<feGaussianBlur stdDeviation="6.86895" result="effect1_foregroundBlur_830_21"/>
</filter>
<filter id="filter2_b_830_21" x="-0.470731" y="-2.3262" width="185.058" height="147.481" filterUnits="userSpaceOnUse" color-interpolation-filters="sRGB">
<feFlood flood-opacity="0" result="BackgroundImageFix"/>
<feGaussianBlur in="BackgroundImageFix" stdDeviation="1.61622"/>
<feComposite in2="SourceAlpha" operator="in" result="effect1_backgroundBlur_830_21"/>
<feBlend mode="normal" in="SourceGraphic" in2="effect1_backgroundBlur_830_21" result="shape"/>
</filter>
<filter id="filter3_d_830_21" x="45.4135" y="51.4252" width="97.9337" height="38.9875" filterUnits="userSpaceOnUse" color-interpolation-filters="sRGB">
<feFlood flood-opacity="0" result="BackgroundImageFix"/>
<feColorMatrix in="SourceAlpha" type="matrix" values="0 0 0 0 0 0 0 0 0 0 0 0 0 0 0 0 0 0 127 0" result="hardAlpha"/>
<feOffset dy="3.23245"/>
<feGaussianBlur stdDeviation="4.44462"/>
<feComposite in2="hardAlpha" operator="out"/>
<feColorMatrix type="matrix" values="0 0 0 0 0 0 0 0 0 0 0 0 0 0 0 0 0 0 0.25 0"/>
<feBlend mode="normal" in2="BackgroundImageFix" result="effect1_dropShadow_830_21"/>
<feBlend mode="normal" in="SourceGraphic" in2="effect1_dropShadow_830_21" result="shape"/>
</filter>
</defs>
</svg>
